<?xml version="1.0" encoding="UTF-8"?>
<svg version="1.1" xmlns="http://www.w3.org/2000/svg" width="1920" height="1080">
<path d="M0 0 C1.08648331 0.00140488 1.08648331 0.00140488 2.19491577 0.00283813 C66.02257134 0.18080687 127.16226618 21.83610385 178 60.1875 C181.22078728 58.67731899 184.0752196 56.85349139 187.0078125 54.84375 C199.04078736 46.66438221 211.03818707 38.8137308 224 32.1875 C224.79374023 31.77838379 225.58748047 31.36926758 226.40527344 30.94775391 C293.29597085 -3.17881616 373.44374034 -9.62733977 445 13.1875 C473.81961404 22.73089819 502.01625795 36.26395732 526.48217773 54.30371094 C529.88578421 56.79814924 532.93858616 58.86244413 537 60.1875 C537.50144531 59.74921875 538.00289062 59.3109375 538.51953125 58.859375 C565.50914274 36.23775855 599.56638626 21.27604876 633 11.1875 C633.73573242 10.95869141 634.47146484 10.72988281 635.22949219 10.49414062 C646.09960602 7.15626686 657.1603514 5.19839672 668.375 3.4375 C669.39214584 3.27686066 669.39214584 3.27686066 670.42984009 3.11297607 C684.62101193 0.89678101 698.58625698 -0.02424932 712.9375 0 C714.02156631 0.00140488 714.02156631 0.00140488 715.12753296 0.00283813 C760.74119686 0.13018927 806.72395994 10.26924201 847.02148438 32.12011719 C849.23654698 33.31511394 851.46951295 34.47287961 853.703125 35.6328125 C865.47279406 41.83577724 876.30532951 48.98245031 887.02734375 56.84985352 C888.95605049 58.1576981 890.89326532 59.19746431 893 60.1875 C893.67035278 59.70506836 893.67035278 59.70506836 894.35424805 59.21289062 C903.70123939 52.50382529 913.05090997 45.98164968 923 40.1875 C923.65516602 39.80384277 924.31033203 39.42018555 924.98535156 39.02490234 C956.18194064 20.86408226 989.98999631 8.96298577 1025.625 3.375 C1026.29636993 3.26949829 1026.96773987 3.16399658 1027.65945435 3.05529785 C1041.7677344 0.86924277 1055.67275166 -0.02410317 1069.9375 0 C1071.02156631 0.00140488 1071.02156631 0.00140488 1072.12753296 0.00283813 C1141.25416093 0.19583633 1212.73675324 25.24425526 1263.6328125 72.96875 C1265.66931327 74.8775494 1267.74537017 76.69732579 1269.875 78.5 C1279.50708872 86.90582691 1288.10161423 96.14717911 1296 106.1875 C1296.95352562 107.35336819 1297.90939103 108.5173254 1298.8671875 109.6796875 C1336.61449696 155.69614756 1361.94614027 217.53897261 1362.203125 277.51171875 C1362.20882507 278.57501907 1362.21452515 279.6383194 1362.22039795 280.73384094 C1362.22979595 282.97855655 1362.23636109 285.22328564 1362.24023438 287.46801758 C1362.24984446 290.82073706 1362.28087894 294.17281698 1362.3125 297.52539062 C1362.38358581 311.97792819 1361.3270603 325.9242541 1359 340.1875 C1358.70971924 341.98247925 1358.70971924 341.98247925 1358.41357422 343.8137207 C1357.93186128 346.55694671 1357.39685285 349.27697241 1356.8125 352 C1356.6060083 352.97098633 1356.3995166 353.94197266 1356.18676758 354.94238281 C1350.837508 379.06310023 1342.47822155 402.44255668 1330.98242188 424.30810547 C1330.01640975 426.1561078 1329.07652869 428.01550816 1328.140625 429.87890625 C1310.9280892 463.69420841 1284.10732122 496.07171927 1254 519.1875 C1252.99839844 519.98285156 1251.99679687 520.77820313 1250.96484375 521.59765625 C1225.11023009 542.03030838 1195.98640797 557.17822561 1165 568.1875 C1164.23816406 568.46190918 1163.47632813 568.73631836 1162.69140625 569.01904297 C1133.33022453 579.44897066 1102.02873761 583.42812274 1071 583.375 C1070.23143677 583.37373108 1069.46287354 583.37246216 1068.67102051 583.37115479 C1038.39654057 583.2763168 1008.7439665 578.91839678 980 569.1875 C979.27748047 568.95063477 978.55496094 568.71376953 977.81054688 568.46972656 C951.16451273 559.72762085 926.34528942 546.76660796 903.34082031 530.80175781 C899.59202077 528.21654061 895.79672584 525.70159429 892 523.1875 C890.7625 524.09628906 890.7625 524.09628906 889.5 525.0234375 C838.23192318 562.35653485 778.18457074 583.47993332 714.5625 583.375 C713.76776276 583.37373108 712.97302551 583.37246216 712.15420532 583.37115479 C665.35260651 583.22916285 619.36565939 572.45016016 578 550.1875 C577.28827637 549.81157715 576.57655273 549.4356543 575.84326172 549.04833984 C565.30644866 543.47056426 555.42261065 537.29221859 545.70654297 530.39013672 C542.19010382 527.9120281 538.5928553 525.55279641 535 523.1875 C534.12601563 523.85394531 533.25203125 524.52039063 532.3515625 525.20703125 C472.32234426 570.43622814 394.75885526 591.42933246 320.04736328 581.6328125 C292.32295538 577.58143291 265.72553524 570.38606705 240 559.1875 C239.28618164 558.87876953 238.57236328 558.57003906 237.83691406 558.25195312 C219.44536583 550.20086352 202.28007539 539.89251771 186 528.1875 C184.68509455 527.24841961 183.36999537 526.30961042 182.0546875 525.37109375 C180.54261719 524.29021484 180.54261719 524.29021484 179 523.1875 C174.36525931 526.24374205 169.77034308 529.33897665 165.25 532.5625 C102.9230633 576.10597632 23.48272046 592.35855749 -51.15771484 579.35864258 C-74.47447164 575.11122263 -97.0531809 568.26827259 -118.58544922 558.30371094 C-121.00759844 557.18398735 -123.44188695 556.09472994 -125.87890625 555.0078125 C-163.91902748 537.79369703 -200.54307588 509.35864355 -226 476.1875 C-226.87255304 475.10219483 -227.74771347 474.01898253 -228.625 472.9375 C-235.28307834 464.68656323 -241.3434934 456.15359276 -247 447.1875 C-247.40041504 446.55569824 -247.80083008 445.92389648 -248.21337891 445.27294922 C-259.217677 427.72723188 -268.32977469 408.79456358 -275 389.1875 C-275.42539062 387.98738281 -275.85078125 386.78726562 -276.2890625 385.55078125 C-285.14130488 359.99875647 -291.07392374 332.65912953 -291.203125 305.5546875 C-291.21364647 304.07459702 -291.21364647 304.07459702 -291.22438049 302.56460571 C-291.24179482 299.39719024 -291.24823284 296.22996159 -291.25 293.0625 C-291.25067474 291.98170166 -291.25134949 290.90090332 -291.25204468 289.78735352 C-291.23671764 274.3663471 -290.9248947 259.37283537 -288 244.1875 C-287.81775879 243.19508301 -287.63551758 242.20266602 -287.44775391 241.18017578 C-285.05170277 228.2871387 -282.07025249 215.65336484 -278 203.1875 C-277.64131836 202.06093994 -277.64131836 202.06093994 -277.27539062 200.91162109 C-266.63834867 167.74948064 -249.72096003 137.32966469 -228 110.1875 C-227.29746094 109.29160156 -226.59492188 108.39570313 -225.87109375 107.47265625 C-207.77193728 84.77371416 -186.22449334 65.1568781 -162 49.1875 C-161.44393066 48.8147998 -160.88786133 48.44209961 -160.31494141 48.05810547 C-134.69514714 30.97102375 -106.50783555 18.73139688 -77 10.1875 C-75.80890625 9.83171875 -74.6178125 9.4759375 -73.390625 9.109375 C-63.99435063 6.52437376 -54.4250316 5.01784035 -44.8125 3.5 C-44.12926666 3.39122528 -43.44603333 3.28245056 -42.74209595 3.17037964 C-28.47750402 0.91890927 -14.43327316 -0.02432609 0 0 Z M-84 90.1875 C-84.90492188 90.56132813 -85.80984375 90.93515625 -86.7421875 91.3203125 C-89.53738423 92.53524603 -92.26680791 93.83820264 -95 95.1875 C-96.01852051 95.68975098 -96.01852051 95.68975098 -97.05761719 96.20214844 C-118.10277054 106.67511159 -135.94249288 120.04590807 -153 136.1875 C-154.39412109 137.50041016 -154.39412109 137.50041016 -155.81640625 138.83984375 C-194.63785593 176.44639742 -216.79720937 231.52486495 -218.203125 285.16796875 C-218.93216059 343.52820246 -198.94888161 399.98827086 -158 442.1875 C-157.15115234 443.07501953 -157.15115234 443.07501953 -156.28515625 443.98046875 C-124.09017221 477.56018329 -81.9248298 499.58752246 -36 507.1875 C-34.77667969 507.40019531 -33.55335938 507.61289062 -32.29296875 507.83203125 C1.86020285 513.46345575 38.4670973 510.1214446 71 498.1875 C71.76054687 497.91067383 72.52109375 497.63384766 73.3046875 497.34863281 C89.29535387 491.44153761 104.39265572 484.05531285 118.6875 474.75 C119.32985596 474.3370166 119.97221191 473.9240332 120.6340332 473.49853516 C122.57929062 472.22481675 122.57929062 472.22481675 125 470.1875 C125 465.92707537 122.56641837 463.67229407 120.0625 460.4375 C87.74018498 417.37565114 67.17951931 359.97490481 66.76171875 306.00390625 C66.75197021 304.95861252 66.74222168 303.91331879 66.73217773 302.83634949 C66.57233242 281.28010975 66.48362077 260.35712002 71 239.1875 C71.40255711 237.13701569 71.80357793 235.08622921 72.203125 233.03515625 C74.45188976 221.84060817 77.362283 211.00299418 81 200.1875 C81.42152344 198.78371094 81.42152344 198.78371094 81.8515625 197.3515625 C90.34264876 169.65633724 105.22775163 139.48500824 124.28149414 117.5625 C124.84860107 116.77875 125.41570801 115.995 126 115.1875 C124.86919941 111.79509822 124.41403379 111.5323665 121.4921875 109.76953125 C120.39583984 109.10135376 120.39583984 109.10135376 119.27734375 108.41967773 C118.48457031 107.95118408 117.69179688 107.48269043 116.875 107 C116.05386719 106.51023682 115.23273438 106.02047363 114.38671875 105.51586914 C111.93116878 104.06133649 109.46645352 102.62344194 107 101.1875 C106.05882324 100.62724121 106.05882324 100.62724121 105.09863281 100.05566406 C85.83707409 88.64343718 63.86369405 81.54530204 42 77.1875 C41.11973145 77.01105957 40.23946289 76.83461914 39.33251953 76.65283203 C-1.5934287 68.92705434 -45.75711066 74.18515623 -84 90.1875 Z M271 91.1875 C270.2260791 91.52507324 269.4521582 91.86264648 268.65478516 92.21044922 C255.73581523 97.91421751 243.19092946 104.4927929 232 113.1875 C233.48007068 117.53874603 235.83689916 120.9209693 238.5625 124.5625 C281.64075621 183.75037495 299.17772668 261.83392244 288.42919922 334.02099609 C283.07172127 366.30632201 273.52602937 397.29203661 258 426.1875 C257.63471191 426.88327148 257.26942383 427.57904297 256.89306641 428.29589844 C250.82934182 439.82851289 243.88633185 450.55320595 236.38769531 461.20117188 C234.54757042 463.83510153 232.76839721 466.50500375 231 469.1875 C284.50872304 503.27084885 342.13898736 518.34947084 405.28515625 504.53515625 C412.68378755 502.83302088 419.85948143 500.77511091 427 498.1875 C427.71172363 497.93242676 428.42344727 497.67735352 429.15673828 497.41455078 C448.37688642 490.44698679 466.45012645 481.22568828 483 469.1875 C482.4416748 468.45829346 482.4416748 468.45829346 481.87207031 467.71435547 C471.96909541 454.66385059 463.67247638 440.64151867 456 426.1875 C455.64309082 425.51895996 455.28618164 424.85041992 454.91845703 424.16162109 C436.15884509 388.74833767 424.05801069 346.8527934 423.76171875 306.6640625 C423.75197021 305.57282578 423.74222168 304.48158905 423.73217773 303.35728455 C423.41770371 259.08425524 423.41770371 259.08425524 428 238.1875 C428.39002294 236.26055822 428.77934223 234.33347389 429.16796875 232.40625 C437.49986376 192.50193642 453.72516574 153.25761031 478.61108398 120.76635742 C480.54908192 118.23389047 481.98244895 116.24015315 483 113.1875 C420.01706737 71.55971796 341.31224543 60.2967871 271 91.1875 Z M588 113.1875 C590.21847654 116.9946017 592.64607592 120.58902343 595.1875 124.1875 C599.7295283 130.69582645 603.95258747 137.35846805 608 144.1875 C608.5254541 145.06583496 608.5254541 145.06583496 609.06152344 145.96191406 C647.36817016 210.35700482 657.6215845 290.30709951 639.3984375 362.73046875 C629.85087949 398.89655203 614.34712385 437.28098204 589.62109375 465.9453125 C588.81865234 467.05519531 588.81865234 467.05519531 588 468.1875 C589.53389601 472.78918804 593.12045982 474.19129275 597.125 476.6875 C597.96812744 477.21432373 598.81125488 477.74114746 599.67993164 478.28393555 C648.67098609 508.20428662 709.08675875 517.82972676 764.98046875 504.52734375 C790.84356128 497.85996815 817.66006126 487.68633716 839 471.1875 C839.33 470.5275 839.66 469.8675 840 469.1875 C839.39414063 468.3625 838.78828125 467.5375 838.1640625 466.6875 C832.15009232 458.42495435 826.55010118 449.97191181 821.24682617 441.23632812 C820.37091794 439.79700526 819.48472416 438.36391582 818.59106445 436.93554688 C795.38835581 399.33782773 782.40319458 352.91081571 780.4375 308.9375 C780.3957666 308.01001953 780.3540332 307.08253906 780.31103516 306.12695312 C780.01235766 299.13911888 779.81884513 292.18165333 780 285.1875 C780.02682861 284.07568359 780.02682861 284.07568359 780.05419922 282.94140625 C781.62375776 224.92502339 801.0935955 168.45428399 835.20458984 121.5793457 C835.68621582 120.91507568 836.1678418 120.25080566 836.6640625 119.56640625 C837.09154785 118.9844751 837.5190332 118.40254395 837.95947266 117.80297852 C839.18411723 116.04823879 839.18411723 116.04823879 840 113.1875 C761.5074954 62.39449005 666.31495054 60.34276134 588 113.1875 Z M945 113.1875 C947.07508961 116.70635421 949.26000467 120.11920527 951.546875 123.50390625 C952.2275 124.51646484 952.908125 125.52902344 953.609375 126.57226562 C955.0189116 128.66470728 956.43032273 130.75588761 957.84375 132.84570312 C965.27931072 143.92217281 971.75923723 155.20781282 977.375 167.3125 C977.6524707 167.90988983 977.92994141 168.50727966 978.21582031 169.12277222 C984.08423664 181.82558811 988.86991827 194.81465843 993 208.1875 C993.25716797 209.01975098 993.51433594 209.85200195 993.77929688 210.70947266 C1010.30781316 265.59467736 1008.75053534 326.82336042 991 381.1875 C990.76087891 381.93854004 990.52175781 382.68958008 990.27539062 383.46337891 C981.27354891 411.52760393 967.63354533 437.22621151 950.71484375 461.28125 C948.67637044 464.18053476 946.76448995 467.11032722 945 470.1875 C984.81729669 502.05960217 1041.80373579 514.43352987 1091.85473633 509.31689453 C1133.37164851 504.5907 1172.06737227 490.21118485 1205 464.1875 C1206.36705078 463.11048828 1206.36705078 463.11048828 1207.76171875 462.01171875 C1217.57257725 454.13224181 1226.94399151 445.87880935 1235 436.1875 C1235.83015625 435.24519531 1236.6603125 434.30289062 1237.515625 433.33203125 C1262.35144963 405.01804646 1279.67951977 368.26612953 1286 331.1875 C1286.14808105 330.32850098 1286.29616211 329.46950195 1286.44873047 328.58447266 C1293.18198303 287.72834276 1289.21941057 244.08876866 1272 206.1875 C1271.64566895 205.39424316 1271.29133789 204.60098633 1270.92626953 203.78369141 C1263.36118259 186.95523271 1254.51870283 171.63929579 1243 157.1875 C1242.20464844 156.1871875 1241.40929688 155.186875 1240.58984375 154.15625 C1228.99569344 139.88738311 1215.84831481 127.02676981 1201 116.1875 C1200.154375 115.5584375 1199.30875 114.929375 1198.4375 114.28125 C1176.82879148 98.64336884 1152.76457737 88.04306413 1127.18847656 80.80859375 C1125.4104133 80.30397606 1123.63788518 79.77988459 1121.8671875 79.25 C1062.62786171 62.66989715 994.62636995 78.52781305 945 113.1875 Z M535 166.1875 C520.44805343 185.2169686 511.07586143 208.52075745 504 231.1875 C503.65066406 232.25097656 503.30132813 233.31445312 502.94140625 234.41015625 C488.04941642 283.95354654 494.56370654 342.43519479 518 388.1875 C518.39123047 388.95900391 518.78246094 389.73050781 519.18554688 390.52539062 C525.88824184 403.77459227 525.88824184 403.77459227 534 416.1875 C537.51715622 415.01511459 537.79983434 414.35555887 539.63671875 411.27734375 C540.12744873 410.46096436 540.61817871 409.64458496 541.1237793 408.8034668 C541.63980713 407.91957275 542.15583496 407.03567871 542.6875 406.125 C543.2235083 405.21468018 543.7595166 404.30436035 544.31176758 403.36645508 C563.37456896 370.6714176 574.52796537 335.13839293 576 297.1875 C576.04125 296.13433594 576.0825 295.08117187 576.125 293.99609375 C576.91916178 251.95515478 565.30381187 198.95179798 537 166.1875 C536.34 166.1875 535.68 166.1875 535 166.1875 Z M892 166.1875 C859.1038304 216.48765512 844.71675649 275.30435327 856.30224609 334.953125 C858.29831193 344.20570727 860.98471356 353.22103479 864 362.1875 C864.25539551 362.95513672 864.51079102 363.72277344 864.77392578 364.51367188 C870.91879143 382.68110076 880.19057498 400.3628913 891 416.1875 C918.64826933 390.29756359 930.96556394 338.16826683 932.28813171 301.99168396 C933.60460675 255.17802062 922.31927253 207.85956321 895 169.1875 C894.01627752 168.17148323 893.01968046 167.16742436 892 166.1875 Z M178 167.1875 C146.44201799 204.54668119 135.69473337 262.68468243 139.29296875 310.04345703 C141.44001796 333.26564114 146.32324675 355.88820969 156 377.1875 C156.35433105 377.98075684 156.70866211 378.77401367 157.07373047 379.59130859 C165.6165539 399.97758004 165.6165539 399.97758004 179 417.1875 C196.9998794 391.37138905 208.73370318 363.01363758 215 332.1875 C215.15243164 331.47223145 215.30486328 330.75696289 215.46191406 330.02001953 C223.82498697 289.26132835 217.99284064 242.90379343 201 205.1875 C200.68869141 204.4749707 200.37738281 203.76244141 200.05664062 203.02832031 C195.85340353 193.44705354 191.1238852 184.36810958 185.5625 175.5 C185.04220215 174.66758789 184.5219043 173.83517578 183.98583984 172.97753906 C182.10375227 170.00184476 182.10375227 170.00184476 180 167.1875 C179.34 167.1875 178.68 167.1875 178 167.1875 Z " fill="#A0A2A3" transform="translate(424,28.8125)"/>
<path d="M0 0 C14.5947016 -0.25736852 29.18910159 -0.45113233 43.78561401 -0.56993389 C50.56374117 -0.62657192 57.34045569 -0.70373011 64.11767578 -0.82983398 C70.65986797 -0.95150629 77.20114499 -1.0151524 83.74441528 -1.04364967 C86.23885174 -1.06395347 88.73320911 -1.10360512 91.22702026 -1.16303062 C110.70528041 -1.60866227 110.70528041 -1.60866227 116.13691711 2.19906616 C118.25226097 5.04690944 119.61895914 7.741046 121 11 C122.00378057 12.55688192 123.03937327 14.09385203 124.11010742 15.60546875 C125.11119785 17.13108562 126.10957092 18.65848843 127.10546875 20.1875 C128.2499644 21.93296605 129.3944973 23.67840768 130.5390625 25.42382812 C131.13235352 26.33076416 131.72564453 27.2377002 132.33691406 28.17211914 C142.93427537 44.36594975 153.64762545 60.47608409 164.5 76.5 C174.35610414 91.05648689 184.09943639 105.68144795 193.75 120.375 C203.09506895 134.60185858 212.52086976 148.76758319 222.07485962 162.85498047 C230.7557759 175.65525822 239.36468925 188.50206567 247.9375 201.375 C248.81548752 202.6933786 248.81548752 202.6933786 249.71121216 204.03839111 C252.46957582 208.18098284 255.22703967 212.32417229 257.98388672 216.46777344 C261.94699544 222.42400891 265.91588757 228.37638427 269.88528442 234.32843018 C271.63214301 236.94792897 273.3785545 239.56772579 275.125 242.1875 C275.7634082 243.1451123 276.40181641 244.10272461 277.05957031 245.08935547 C289.828125 264.2421875 289.828125 264.2421875 291.07202148 266.1081543 C291.84742416 267.27117796 292.62297366 268.43410377 293.39868164 269.59692383 C295.65876618 272.98537437 297.91471637 276.37653282 300.16796875 279.76953125 C300.98249512 280.99470459 300.98249512 280.99470459 301.81347656 282.24462891 C302.86976883 283.83351351 303.92515665 285.42299989 304.97949219 287.01318359 C305.4593457 287.7345752 305.93919922 288.4559668 306.43359375 289.19921875 C306.85697021 289.83690186 307.28034668 290.47458496 307.71655273 291.1315918 C309.01117264 293.06883821 309.01117264 293.06883821 310.66040039 295.05004883 C312 297 312 297 312 300 C298.56135106 300.23180506 285.12317836 300.40943577 271.68293667 300.51812172 C265.44179563 300.57028945 259.2020232 300.64103198 252.96166992 300.75439453 C246.93799994 300.86313469 240.91564519 300.92285932 234.89106941 300.94877243 C232.59399773 300.96723555 230.29699728 301.0032924 228.00048637 301.05730057 C209.99507644 301.46386122 209.99507644 301.46386122 205.10128784 297.87310791 C203.25343537 295.28352133 202.12528604 292.96295401 201 290 C200.05348027 288.41042079 199.08295935 286.83462362 198.078125 285.28125 C197.13169536 283.68970704 196.18906668 282.09589844 195.25 280.5 C194.21958103 278.76252771 193.18831035 277.0255603 192.15625 275.2890625 C191.63804687 274.41668945 191.11984375 273.54431641 190.5859375 272.64550781 C189.00495597 270.00826707 187.398907 267.38832086 185.78125 264.7734375 C185.27174805 263.94908203 184.76224609 263.12472656 184.23730469 262.27539062 C183.26220344 260.70165533 182.28380002 259.12996025 181.30175781 257.56054688 C178 252.21997197 178 252.21997197 178 250 C177.16406783 250.16238096 176.32813566 250.32476192 175.46687222 250.49206352 C171.76855798 251.03390891 168.2677981 251.12590409 164.53004456 251.12698364 C163.79890109 251.12854363 163.06775763 251.13010362 162.31445831 251.13171089 C159.8757151 251.13568492 157.43703464 251.1325452 154.99829102 251.12939453 C153.24523889 251.13075018 151.49218705 251.13253103 149.73913574 251.13470459 C144.98503331 251.13925979 140.2309526 251.13749712 135.47684979 251.1343255 C130.49798859 251.13179164 125.51912923 251.13414235 120.54026794 251.13571167 C112.17845323 251.13753053 103.81664735 251.13513465 95.45483398 251.13037109 C85.79366363 251.1249308 76.13251438 251.12669058 66.47134453 251.1321975 C58.17139333 251.13673881 49.87144847 251.13737413 41.57149643 251.13475883 C36.61659044 251.13320144 31.66169436 251.13298753 26.70678902 251.13629532 C22.04713328 251.13918874 17.38750468 251.13717127 12.72785187 251.13140106 C11.01986422 251.13008128 9.31187428 251.13045428 7.60388756 251.13266373 C5.26820745 251.13540605 2.93261373 251.1319565 0.59693909 251.12698364 C-0.708823 251.12660662 -2.01458509 251.12622959 -3.35991573 251.12584114 C-7.00372728 250.99987114 -10.40718497 250.58439055 -14 250 C-14.0928125 250.69996094 -14.185625 251.39992188 -14.28125 252.12109375 C-15.15044913 255.60261417 -16.60620362 258.00693238 -18.5 261.0625 C-19.302212 262.36971272 -20.10428184 263.67701268 -20.90625 264.984375 C-21.37675781 265.74556641 -21.84726562 266.50675781 -22.33203125 267.29101562 C-25.52345495 272.47427637 -28.67339188 277.68291345 -31.83081055 282.88693237 C-32.99316734 284.80124712 -34.15745737 286.71437336 -35.32226562 288.62719727 C-36.04817829 289.82047453 -36.77408979 291.01375249 -37.5 292.20703125 C-38.1496875 293.2741333 -38.799375 294.34123535 -39.46875 295.44067383 C-40.36122665 296.93235634 -41.22261576 298.44523152 -42 300 C-75.66 300 -109.32 300 -144 300 C-142.59830279 296.49575698 -141.60418992 294.16182394 -139.57104492 291.18334961 C-139.08302902 290.4630809 -138.59501312 289.74281219 -138.09220886 289.00071716 C-137.56033463 288.22575394 -137.02846039 287.45079071 -136.48046875 286.65234375 C-135.91890579 285.82529434 -135.35734283 284.99824493 -134.77876282 284.14613342 C-133.55966172 282.35108626 -132.33856883 280.55739057 -131.11572266 278.76489258 C-127.79906259 273.90160564 -124.49886725 269.02718271 -121.19921875 264.15234375 C-120.17506363 262.63983536 -120.17506363 262.63983536 -119.13021851 261.09677124 C-112.16267841 250.790646 -105.32448898 240.40116001 -98.5 230 C-88.34320679 214.52895911 -78.06274428 199.14804065 -67.6875 183.82275391 C-58.52310607 170.28107807 -49.47519728 156.66772946 -40.5 143 C-30.86588529 128.3305318 -21.14104379 113.72743176 -11.3125 99.1875 C-10.11750018 97.417951 -8.922594 95.64833875 -7.7277832 93.87866211 C-2.88981522 86.71430788 1.94899011 79.55054233 6.79785156 72.39355469 C9.89346145 67.82289785 12.97958788 63.24596535 16.05947876 58.66470337 C17.21933266 56.94300391 18.38251385 55.22354082 19.54916382 53.50643921 C21.15199715 51.14663886 22.74330566 48.77946862 24.33203125 46.41015625 C24.80859161 45.71437469 25.28515198 45.01859314 25.77615356 44.30172729 C28.08334529 40.83396565 29 39.27704513 29 35 C27.97282128 33.2762505 27.97282128 33.2762505 26.47265625 31.71484375 C25.93205566 31.10713135 25.39145508 30.49941895 24.83447266 29.87329102 C23.95734619 28.91507446 23.95734619 28.91507446 23.0625 27.9375 C21.86204273 26.59225002 20.66283021 25.24588827 19.46484375 23.8984375 C18.87300293 23.23682617 18.28116211 22.57521484 17.67138672 21.89355469 C15.41576098 19.3381014 13.26746502 16.71366122 11.125 14.0625 C7.92081564 10.10020918 4.62361073 6.24845637 1.21484375 2.4609375 C0 1 0 1 0 0 Z M81 92 C80.53851562 92.969375 80.07703125 93.93875 79.6015625 94.9375 C75.84968325 102.69673474 71.83036207 110.12739526 67.19018555 117.38964844 C63.32476222 123.44287123 59.61980476 129.5838674 55.9375 135.75 C50.66175995 144.56757635 45.37302664 153.37688647 40.0486145 162.16516113 C39.3185945 163.37067961 38.58930341 164.57663985 37.86080933 165.78308105 C33.72464381 172.63155126 29.49360999 179.38091942 25 186 C23.68 187.98 22.36 189.96 21 192 C61.26 192 101.52 192 143 192 C141.02 189.36 139.04 186.72 137 184 C136.07368013 182.58277599 135.17055814 181.14935395 134.31640625 179.6875 C133.87208252 178.93533203 133.42775879 178.18316406 132.9699707 177.40820312 C132.50550537 176.61349609 132.04104004 175.81878906 131.5625 175 C127.08205096 167.43283074 122.49466693 159.94396685 117.8125 152.5 C112.50178941 144.03956027 107.24380593 135.54908969 102.05062866 127.01611328 C101.3213916 125.81814522 100.59130007 124.62069679 99.86026001 123.42382812 C95.36135813 116.05431289 91.08201466 108.60742542 87 101 C85.34124265 97.99557343 83.67233646 94.99688614 82 92 C81.67 92 81.34 92 81 92 Z " fill="#E11D38" transform="translate(475,743)"/>
<path d="M0 0 C13.46482473 -0.37184031 26.92841578 -0.65556168 40.39734173 -0.82899475 C46.65289677 -0.91226814 52.90492332 -1.0250569 59.15844727 -1.20703125 C65.20180799 -1.38177547 71.24179197 -1.47672141 77.28748512 -1.51803589 C79.58551001 -1.54744659 81.88336371 -1.60488907 84.17993736 -1.69168091 C101.65241391 -2.32531972 101.65241391 -2.32531972 107.20547867 1.53198242 C111.08153343 5.21043211 113.97297335 9.39052577 116.71816444 13.95068359 C118.76057454 17.21595775 121.19458963 20.14468162 123.625 23.125 C124.52593897 24.27147617 125.42468863 25.41967941 126.3203125 26.5703125 C129.03972472 30.05251091 131.76903326 33.52685971 134.5 37 C137.23096674 40.47314029 139.96027528 43.94748909 142.6796875 47.4296875 C147.57733754 53.69387532 152.53277704 59.90371553 157.5625 66.0625 C162.25574471 71.81352196 166.84374498 77.62418039 171.33984375 83.53125 C173.32633357 86.1360816 175.34615272 88.71236695 177.37890625 91.28125 C184.72209328 100.57876083 191.70637234 109.95839529 198 120 C198.42265137 120.66854004 198.84530273 121.33708008 199.28076172 122.02587891 C216.28450321 149.13926753 225.04885638 179.62631455 218.66748047 211.64453125 C214.85267607 227.67964127 207.73399954 242.47700053 197 255 C196.15695312 256.00417969 195.31390625 257.00835938 194.4453125 258.04296875 C176.68766319 278.62843504 151.83777467 289.98495281 126 297 C125.24090332 297.2072168 124.48180664 297.41443359 123.69970703 297.62792969 C112.92341654 300.50887125 102.092665 302.59803614 91.0625 304.25 C89.97412842 304.41314697 88.88575684 304.57629395 87.7644043 304.74438477 C34.58089234 312.29952342 -31.35353536 306.85043731 -76.13232422 274.42480469 C-81.09757477 270.63693512 -85.56239589 266.38204725 -90 262 C-90.62777344 261.44441406 -91.25554687 260.88882812 -91.90234375 260.31640625 C-110.40629968 243.55399911 -119.80085121 216.96012157 -121.1875 192.72265625 C-121.6817731 167.73097266 -114.2707401 145.10824223 -98 126 C-97.38511719 125.25234375 -96.77023437 124.5046875 -96.13671875 123.734375 C-71.47358922 94.67241074 -27.44918104 79.90847672 9.484375 76.4375 C16.23638913 75.9159622 22.98381588 75.77905842 29.75317383 75.75976562 C31.80005559 75.75005901 33.84592978 75.71890009 35.89257812 75.6875 C49.12929265 75.58243175 61.30028477 78.27721445 74 82 C73.16597656 81.24976563 72.33195312 80.49953125 71.47265625 79.7265625 C64.56741181 73.46572519 58.11870927 67.04441805 52 60 C50.46121043 58.28907465 48.91953071 56.58074435 47.375 54.875 C44.15244024 51.29561701 40.968943 47.68556132 37.8046875 44.0546875 C34.24361827 40.00030997 30.6165196 36.0048707 27 32 C22.24015053 26.72902575 17.49337923 21.45119017 12.83984375 16.0859375 C11.43357235 14.4915661 10.00483695 12.91698146 8.56640625 11.3515625 C7.74011719 10.45179688 6.91382813 9.55203125 6.0625 8.625 C5.29035156 7.79226563 4.51820312 6.95953125 3.72265625 6.1015625 C2 4 2 4 2 2 C1.34 2 0.68 2 0 2 C0 1.34 0 0.68 0 0 Z M20 134 C18.97648437 134.26683594 17.95296875 134.53367187 16.8984375 134.80859375 C-0.98900172 140.11818983 -17.12521687 150.77036434 -26.7578125 166.953125 C-32.74608939 178.23538581 -34.67723067 189.73342671 -31.875 202.265625 C-26.82684037 218.04112383 -15.22557963 229.95330374 -0.8671875 237.6875 C26.06248579 250.6656558 60.54770983 253.25778444 89.03515625 243.5390625 C105.68485089 237.33375033 120.62863525 227.12405806 128.56640625 210.7734375 C133.6269455 198.92226011 135.09318956 187.11815958 131 174.6875 C128.29619291 167.99272131 124.65919815 162.48808171 120 157 C119.39414063 156.28199219 118.78828125 155.56398438 118.1640625 154.82421875 C112.67743727 148.86301201 106.04029848 144.90660954 99 141 C98.12601563 140.51402344 97.25203125 140.02804687 96.3515625 139.52734375 C74.25860936 128.41288886 43.46308704 127.68301503 20 134 Z " fill="#E21C37" transform="translate(1192,743)"/>
<path d="M0 0 C29.7 0 59.4 0 90 0 C89.97679687 8.00894531 89.95359375 16.01789062 89.9296875 24.26953125 C89.91945462 29.3782585 89.90982568 34.48697291 89.90234375 39.59570312 C89.89044145 47.68402797 89.87675083 55.77230744 89.84912109 63.8605957 C89.82720647 70.38993007 89.81539255 76.91921526 89.81024551 83.4485836 C89.80658289 85.92532817 89.79943198 88.40207039 89.78853989 90.87879372 C88.53999079 124.45517387 88.53999079 124.45517387 102 154 C114.42933084 164.66393644 131.12114704 167.11620055 147 166 C159.84978194 164.57799194 172.36439591 161.34108176 181.625 151.6875 C193.63611611 136.44262185 191.33096869 115.01780398 191.40471697 96.7432065 C191.42051933 93.33326218 191.44725335 89.92340243 191.4727478 86.51351929 C191.51923674 80.07893653 191.5561238 73.64433732 191.58942068 67.20967424 C191.62785545 59.87449081 191.6772084 52.53939295 191.72740483 45.20428205 C191.83027924 30.13625155 191.91968192 15.06816891 192 0 C203.45650016 -0.02312241 214.91299481 -0.04091457 226.36951351 -0.05181217 C231.68865213 -0.05704122 237.00777484 -0.06413927 242.3269043 -0.07543945 C247.45563985 -0.08626755 252.58436006 -0.09227667 257.71310616 -0.09487724 C259.67441614 -0.09673163 261.63572524 -0.10035251 263.59702873 -0.10573006 C266.33415447 -0.11293946 269.07121597 -0.11399099 271.80834961 -0.11352539 C273.03725418 -0.1189183 273.03725418 -0.1189183 274.29098511 -0.12442017 C279.88594784 -0.11405216 279.88594784 -0.11405216 281 1 C281.10052499 2.67442679 281.13076303 4.35310908 281.13371277 6.0305481 C281.13797775 7.1209137 281.14224274 8.2112793 281.14663696 9.33468628 C281.14618378 10.54182281 281.14573059 11.74895935 281.14526367 12.99267578 C281.15030159 14.88796021 281.15030159 14.88796021 281.15544128 16.8215332 C281.16430906 20.3017138 281.16662088 23.78186984 281.16725707 27.26206064 C281.16796734 29.44098447 281.17010147 31.61990204 281.17275429 33.79882431 C281.18202497 41.41520331 281.18608804 49.03156477 281.18530273 56.64794922 C281.18470519 63.7191993 281.19518862 70.79037228 281.2110464 77.8616029 C281.22420035 83.94673648 281.22948319 90.03184517 281.22884732 96.11699283 C281.22859413 99.74427355 281.23134376 103.37148617 281.24202538 106.99875259 C281.25366811 111.06448694 281.24891205 115.13005412 281.24291992 119.19580078 C281.24853943 120.37459808 281.25415894 121.55339539 281.25994873 122.76791382 C281.15946306 149.83511026 273.27408573 172.17186605 253.9597168 191.47705078 C220.71433367 223.35479237 170.2083696 224.99942118 126.88232422 224.10498047 C92.31521932 223.17026439 53.22007527 216.22599188 27 192 C26.22398437 191.31550781 25.44796875 190.63101563 24.6484375 189.92578125 C8.65321665 175.05737149 1.4069271 154.37084101 0 133 C-0.12865615 128.51334372 -0.12692667 124.03048202 -0.11352539 119.54223633 C-0.11367142 118.24340515 -0.11381744 116.94457397 -0.1139679 115.60638428 C-0.11425225 112.08027441 -0.10841455 108.55419926 -0.10139394 105.02809739 C-0.09509964 101.32990592 -0.09455183 97.63171346 -0.09336853 93.93351746 C-0.09027301 86.94630585 -0.08208382 79.95911008 -0.07201904 72.97190541 C-0.05870089 63.51889431 -0.05334361 54.06587881 -0.04751682 44.61286068 C-0.03814255 29.74189528 -0.01821182 14.87096329 0 0 Z " fill="#E21C37" transform="translate(769,826)"/>
<path d="M0 0 C30.03 0 60.06 0 91 0 C91 72.6 91 145.2 91 220 C60.97 220 30.94 220 0 220 C0 147.4 0 74.8 0 0 Z " fill="#E21C38" transform="translate(1436,823)"/>
<path d="M0 0 C1.32 0.33 2.64 0.66 4 1 C4 1.99 4 2.98 4 4 C3.01 3.505 3.01 3.505 2 3 C2.03552979 3.64960693 2.07105957 4.29921387 2.10766602 4.96850586 C2.26684464 7.95782199 2.41473794 10.94759866 2.5625 13.9375 C2.64661133 15.46987305 2.64661133 15.46987305 2.73242188 17.03320312 C2.96032033 21.78868427 3.05427936 26.22032431 2.30078125 30.9296875 C1.89109427 34.08077169 1.88712123 34.78203795 3.4140625 37.73046875 C4.14367188 38.54128906 4.87328125 39.35210937 5.625 40.1875 C22.86570249 61.39035151 34.23256833 87.67787089 41 114 C41.29511475 115.12873535 41.29511475 115.12873535 41.59619141 116.28027344 C54.08422918 164.61224102 50.65900612 221.28756609 27.14306641 265.82421875 C25.92417829 268.1443236 24.73249295 270.47721492 23.54296875 272.8125 C13.23530138 292.91106006 13.23530138 292.91106006 6.74685669 300.45747375 C2.75776724 305.34485272 2.26395185 309.24437378 2.29296875 315.43359375 C2.27784744 316.31153091 2.26272614 317.18946808 2.24714661 318.0940094 C2.20444167 320.87543772 2.19544847 323.65577722 2.1875 326.4375 C2.16434225 328.33271089 2.13897426 330.22789614 2.11132812 332.12304688 C2.04864597 336.74879344 2.0161764 341.37386652 2 346 C0.89105551 345.06408642 -0.21579274 344.12568877 -1.32177734 343.1862793 C-1.93838226 342.66398239 -2.55498718 342.14168549 -3.1902771 341.6035614 C-5.90372755 339.19922403 -8.27783255 336.5699115 -10.625 333.8125 C-11.1307959 333.21864502 -11.6365918 332.62479004 -12.15771484 332.01293945 C-32.22000424 307.93019433 -47.7988155 279.08394878 -57.27539062 249.265625 C-57.94331382 247.17723982 -58.64664067 245.10465897 -59.359375 243.03125 C-66.70233142 220.85207002 -69.23032103 196.56136818 -69.25 173.3125 C-69.25101212 172.22776901 -69.25101212 172.22776901 -69.25204468 171.12112427 C-69.23259671 157.8963272 -68.25751953 145.04743163 -66 132 C-65.83902832 131.03900391 -65.67805664 130.07800781 -65.51220703 129.08789062 C-57.61646834 83.30625878 -36.48715984 40.13874203 -4.875 6.0859375 C-3.11897763 4.13236262 -1.53953215 2.12647878 0 0 Z M1 47 C-31.8961696 97.30015512 -46.28324351 156.11685327 -34.69775391 215.765625 C-32.70168807 225.01820727 -30.01528644 234.03353479 -27 243 C-26.74460449 243.76763672 -26.48920898 244.53527344 -26.22607422 245.32617188 C-20.08120857 263.49360076 -10.80942502 281.1753913 0 297 C27.64826933 271.11006359 39.96556394 218.98076683 41.28813171 182.80418396 C42.60460675 135.99052062 31.31927253 88.67206321 4 50 C3.01627752 48.98398323 2.01968046 47.97992436 1 47 Z " fill="#727476" transform="translate(1315,148)"/>
<path d="M0 0 C2.88437779 1.29299694 4.87219421 2.65941363 7 5 C6.67 5.66 6.34 6.32 6 7 C4.35 5.68 2.7 4.36 1 3 C0.91945062 7.48147481 0.89997043 11.95819961 0.93286133 16.43994141 C0.93591074 17.95854885 0.92334654 19.47728244 0.89379883 20.99560547 C0.6761155 32.98797797 2.8464394 39.10390849 11 48 C16.27929489 55.05171468 20.13438398 62.81140541 23.91601562 70.73291016 C24.64464966 72.25680557 25.38045688 73.77728994 26.12304688 75.29443359 C35.66049284 94.84619781 41.54741376 115.54294774 45 137 C45.26707764 138.60041138 45.26707764 138.60041138 45.53955078 140.2331543 C47.13522109 150.7480128 47.32061129 161.07218653 47.25 171.6875 C47.24556885 172.57483826 47.2411377 173.46217651 47.23657227 174.37640381 C47.0548145 205.40455146 41.78830887 233.48855937 29 262 C28.65888184 262.78342773 28.31776367 263.56685547 27.96630859 264.37402344 C23.17445434 275.34149982 17.51600795 285.50372613 10.9921875 295.53515625 C10.5175708 296.27282227 10.0429541 297.01048828 9.55395508 297.77050781 C8 300 8 300 6.1081543 302.14355469 C-0.58305923 310.11062437 -0.01053124 318.22076359 0.0625 328.125 C0.04936829 329.76565318 0.03311712 331.4062845 0.01367188 333.046875 C-0.02685433 337.03190889 -0.02516594 341.01486169 0 345 C-5.85807062 340.19522287 -10.30621862 334.96422139 -15 329 C-15.78503906 328.030625 -16.57007813 327.06125 -17.37890625 326.0625 C-44.84913053 291.49322899 -61.89262798 249.59872973 -68 206 C-68.1743457 204.80197754 -68.34869141 203.60395508 -68.52832031 202.36962891 C-69.15150326 197.29278001 -69.21727618 192.22715808 -69.2734375 187.1171875 C-69.28601089 186.07735718 -69.29858429 185.03752686 -69.3115387 183.96618652 C-69.53390083 161.14280969 -69.43428032 139.28631241 -64 117 C-63.74299316 115.91235352 -63.48598633 114.82470703 -63.22119141 113.70410156 C-53.01564673 71.49111199 -31.18906326 30.51953059 0 0 Z M0 48 C-31.55798201 85.35918119 -42.30526663 143.49718243 -38.70703125 190.85595703 C-36.55998204 214.07814114 -31.67675325 236.70070969 -22 258 C-21.64566895 258.79325684 -21.29133789 259.58651367 -20.92626953 260.40380859 C-12.3834461 280.79008004 -12.3834461 280.79008004 1 298 C18.9998794 272.18388905 30.73370318 243.82613758 37 213 C37.15243164 212.28473145 37.30486328 211.56946289 37.46191406 210.83251953 C45.82498697 170.07382835 39.99284064 123.71629343 23 86 C22.68869141 85.2874707 22.37738281 84.57494141 22.05664062 83.84082031 C17.85340353 74.25955354 13.1238852 65.18060958 7.5625 56.3125 C7.04220215 55.48008789 6.5219043 54.64767578 5.98583984 53.79003906 C4.10375227 50.81434476 4.10375227 50.81434476 2 48 C1.34 48 0.68 48 0 48 Z " fill="#727476" transform="translate(602,148)"/>
<path d="M0 0 C2.62187494 1.04874998 3.79371361 1.64931313 5.25 4.125 C5.62125 5.053125 5.62125 5.053125 6 6 C4.35 5.01 2.7 4.02 1 3 C-0.39215419 25.65301429 -0.39215419 25.65301429 9.24609375 45.05078125 C9.94001221 45.76741943 9.94001221 45.76741943 10.64794922 46.49853516 C13.02320174 49.13627496 14.77090895 52.13598508 16.5625 55.1875 C16.92778809 55.80399414 17.29307617 56.42048828 17.66943359 57.05566406 C46.92441246 107.46860692 55.74024275 170.33212308 41.04150391 226.79394531 C35.74151416 246.1689994 28.48790409 264.07973949 18.6875 281.625 C18.13602295 282.62015625 17.5845459 283.6153125 17.01635742 284.640625 C14.54337357 288.99094463 12.13732398 293.05081174 8.75390625 296.75390625 C-3.05934882 309.99361094 -0.45442241 328.24937336 0 345 C-6.18699332 339.88569446 -11.09940063 334.35449006 -16 328 C-16.52013672 327.33307129 -17.04027344 326.66614258 -17.57617188 325.97900391 C-26.91546023 313.93780005 -34.88758849 301.47337036 -42 288 C-42.65693848 286.76805908 -42.65693848 286.76805908 -43.32714844 285.51123047 C-54.12273819 264.98653428 -62.1053397 241.88370508 -66 219 C-66.13986328 218.18885742 -66.27972656 217.37771484 -66.42382812 216.54199219 C-68.18839525 206.08515157 -69.69839917 195.61214088 -70 185 C-70.02723145 184.07396973 -70.05446289 183.14793945 -70.08251953 182.19384766 C-71.03409656 143.66994 -64.17095871 107.36453579 -49 72 C-48.69900391 71.28811523 -48.39800781 70.57623047 -48.08789062 69.84277344 C-40.28947406 51.60343051 -29.7076553 34.22885411 -17 19 C-16.53964355 18.44103027 -16.07928711 17.88206055 -15.60498047 17.30615234 C-10.6387398 11.27822123 -5.57993966 5.47388818 0 0 Z M0 47 C-14.55194657 66.0294686 -23.92413857 89.33325745 -31 112 C-31.34933594 113.06347656 -31.69867187 114.12695312 -32.05859375 115.22265625 C-46.95058358 164.76604654 -40.43629346 223.24769479 -17 269 C-16.60876953 269.77150391 -16.21753906 270.54300781 -15.81445312 271.33789062 C-9.11175816 284.58709227 -9.11175816 284.58709227 -1 297 C2.51715622 295.82761459 2.79983434 295.16805887 4.63671875 292.08984375 C5.12744873 291.27346436 5.61817871 290.45708496 6.1237793 289.6159668 C6.63980713 288.73207275 7.15583496 287.84817871 7.6875 286.9375 C8.2235083 286.02718018 8.7595166 285.11686035 9.31176758 284.17895508 C28.37456896 251.4839176 39.52796537 215.95089293 41 178 C41.04125 176.94683594 41.0825 175.89367187 41.125 174.80859375 C41.91916178 132.76765478 30.30381187 79.76429798 2 47 C1.34 47 0.68 47 0 47 Z " fill="#727476" transform="translate(959,148)"/>
<path d="M0 0 C0.33 0 0.66 0 1 0 C-0.05486195 15.45918374 -2.72595243 39.65363034 -13 52 C-12.73725854 50.51937458 -12.46421764 49.04057715 -12.1875 47.5625 C-12.03667969 46.73878906 -11.88585938 45.91507812 -11.73046875 45.06640625 C-11.13474775 42.56565232 -10.42592831 40.25775371 -9.5859375 37.8359375 C-7.82064491 32.65655935 -6.6121528 27.40216776 -5.4375 22.0625 C-5.22931641 21.13759766 -5.02113281 20.21269531 -4.80664062 19.25976562 C-3.59095873 13.82158985 -2.46926742 8.37464963 -1.44946289 2.89624023 C-1 1 -1 1 0 0 Z " fill="#D8D9DB" transform="translate(1362,348)"/>
<path d="M0 0 C0.66 0.33 1.32 0.66 2 1 C-1.96 4.96 -5.92 8.92 -10 13 C5.84 13.495 5.84 13.495 22 14 C22 14.33 22 14.66 22 15 C11.11 15 0.22 15 -11 15 C-11.33 15.99 -11.66 16.98 -12 18 C-12.99 16.68 -13.98 15.36 -15 14 C-10.18045285 9.08406191 -5.39294334 4.28669855 0 0 Z " fill="#7C7E80" transform="translate(624,127)"/>
<path d="M0 0 C0.66 0.33 1.32 0.66 2 1 C-2.17478847 5.26176323 -6.3327897 9.50187047 -10.875 13.375 C-18.33794056 19.79521433 -25.2693237 26.87386175 -31.5625 34.44140625 C-33 36 -33 36 -36 38 C-34.35929378 33.98509537 -31.55656463 31.10857353 -28.625 28 C-28.09986816 27.43837158 -27.57473633 26.87674316 -27.03369141 26.2980957 C-23.19475114 22.21558523 -19.30789561 18.17952783 -15.375 14.1875 C-14.86662598 13.66607422 -14.35825195 13.14464844 -13.83447266 12.60742188 C-12.59505563 11.36505486 -11.30186432 10.17676661 -10 9 C-9.34 9 -8.68 9 -8 9 C-7.67 8.01 -7.34 7.02 -7 6 C-5.37109375 4.39453125 -5.37109375 4.39453125 -3.4375 2.8125 C-2.47650391 2.01779297 -2.47650391 2.01779297 -1.49609375 1.20703125 C-1.00238281 0.80871094 -0.50867188 0.41039063 0 0 Z " fill="#67696B" transform="translate(240,101)"/>
<path d="M0 0 C1.2504739 3.7514217 0.52638059 4.96318524 -0.8125 8.625 C-3.26475769 15.37092188 -4.66647338 22.18246278 -6 29.21875 C-6.165 30.08757812 -6.33 30.95640625 -6.5 31.8515625 C-6.8390317 33.64737106 -7.17217979 35.44429852 -7.5 37.2421875 C-7.665 38.10070312 -7.83 38.95921875 -8 39.84375 C-8.144375 40.61912109 -8.28875 41.39449219 -8.4375 42.19335938 C-8.623125 42.78955078 -8.80875 43.38574219 -9 44 C-9.99 44.495 -9.99 44.495 -11 45 C-6.26739927 6.26739927 -6.26739927 6.26739927 0 0 Z " fill="#E0E1E2" transform="translate(1225,232)"/>
<path d="M0 0 C2.8605891 1.35937085 4.85927699 2.64520469 7 5 C6.67 5.66 6.34 6.32 6 7 C4.35 5.68 2.7 4.36 1 3 C1 13.89 1 24.78 1 36 C0.67 36 0.34 36 0 36 C-0.33 25.44 -0.66 14.88 -1 4 C-3.31 6.31 -5.62 8.62 -8 11 C-8 8 -8 8 -6.25 5.95703125 C-5.5075 5.24933594 -4.765 4.54164063 -4 3.8125 C-2.88625 2.73935547 -2.88625 2.73935547 -1.75 1.64453125 C-1.1725 1.10183594 -0.595 0.55914062 0 0 Z " fill="#7B7D7F" transform="translate(602,148)"/>
<path d="M0 0 C0 3 0 3 -1 5 C9.89 5 20.78 5 32 5 C32 5.33 32 5.66 32 6 C20.78 6 9.56 6 -2 6 C-0.02 8.97 -0.02 8.97 2 12 C-0.88437779 10.70700306 -2.87219421 9.34058637 -5 7 C-3.70700306 4.11562221 -2.34058637 2.12780579 0 0 Z " fill="#76787A" transform="translate(1328,494)"/>
<path d="M0 0 C0.66 0.33 1.32 0.66 2 1 C-0.64 3.64 -3.28 6.28 -6 9 C9.84 9.495 9.84 9.495 26 10 C26 10.33 26 10.66 26 11 C15.11 11 4.22 11 -7 11 C-7.33 11.66 -7.66 12.32 -8 13 C-8.66 11.68 -9.32 10.36 -10 9 C-9.44570312 8.51789063 -8.89140625 8.03578125 -8.3203125 7.5390625 C-7.59585937 6.90742188 -6.87140625 6.27578125 -6.125 5.625 C-5.40570312 4.99851563 -4.68640625 4.37203125 -3.9453125 3.7265625 C-2.5923402 2.52573166 -1.2791655 1.2791655 0 0 Z " fill="#7E8183" transform="translate(1333,131)"/>
<path d="M0 0 C-3.66159352 2.44106235 -7.26609432 3.11028811 -11.5 4 C-12.30719482 4.17370117 -13.11438965 4.34740234 -13.94604492 4.52636719 C-30.84679133 8.13068762 -30.84679133 8.13068762 -37 8 C-34.0514909 6.38839254 -31.32168254 5.49456385 -28.04296875 4.78125 C-26.62081055 4.46607422 -26.62081055 4.46607422 -25.16992188 4.14453125 C-24.18572266 3.93183594 -23.20152344 3.71914063 -22.1875 3.5 C-14.52063399 1.85702323 -14.52063399 1.85702323 -6.953125 -0.1796875 C-4.05472078 -0.98479978 -2.7516592 -1.10066368 0 0 Z " fill="#E1E2E3" transform="translate(848,537)"/>
<path d="M0 0 C0.99 0.99 1.98 1.98 3 3 C2.67 3.66 2.34 4.32 2 5 C1.84391977 7.40560273 1.74195542 9.78702772 1.68359375 12.1953125 C1.66281265 12.90275604 1.64203156 13.61019958 1.62062073 14.33908081 C1.55518922 16.60095425 1.49627026 18.86294462 1.4375 21.125 C1.39430867 22.65756422 1.35069418 24.19011657 1.30664062 25.72265625 C1.19951445 29.48165073 1.0982291 33.24076292 1 37 C0.34 36.67 -0.32 36.34 -1 36 C-1 25.44 -1 14.88 -1 4 C-1.99 4 -2.98 4 -4 4 C-2.68 2.68 -1.36 1.36 0 0 Z " fill="#7E8082" transform="translate(1316,506)"/>
<path d="M0 0 C4.5 2.25 4.5 2.25 6 6 C4.35 5.01 2.7 4.02 1 3 C1 8.28 1 13.56 1 19 C0.67 19 0.34 19 0 19 C-0.33 14.05 -0.66 9.1 -1 4 C-3.31 6.31 -5.62 8.62 -8 11 C-8.66 10.67 -9.32 10.34 -10 10 C-6.7 6.7 -3.4 3.4 0 0 Z " fill="#7B7D7F" transform="translate(959,148)"/>
<path d="M0 0 C1.32 0.33 2.64 0.66 4 1 C4 1.99 4 2.98 4 4 C3.34 3.67 2.68 3.34 2 3 C2 8.28 2 13.56 2 19 C1.67 19 1.34 19 1 19 C0.67 14.05 0.34 9.1 0 4 C-2.64 6.64 -5.28 9.28 -8 12 C-8.66 11.67 -9.32 11.34 -10 11 C-9.44570312 10.45730469 -8.89140625 9.91460937 -8.3203125 9.35546875 C-7.23363281 8.28232422 -7.23363281 8.28232422 -6.125 7.1875 C-5.40570312 6.47980469 -4.68640625 5.77210938 -3.9453125 5.04296875 C-1.84641063 2.95600806 -1.84641063 2.95600806 0 0 Z " fill="#7F8183" transform="translate(1315,148)"/>
<path d="M0 0 C0.99 0.99 1.98 1.98 3 3 C2.34 3 1.68 3 1 3 C1 14.22 1 25.44 1 37 C0.01 37 -0.98 37 -2 37 C-1.67 36.34 -1.34 35.68 -1 35 C-0.91410073 32.71101532 -0.89289238 30.41948265 -0.90234375 28.12890625 C-0.9037587 27.45077377 -0.90517365 26.7726413 -0.90663147 26.07395935 C-0.91223258 23.90342823 -0.92477332 21.73299991 -0.9375 19.5625 C-0.94251591 18.10351713 -0.94707866 16.64453263 -0.95117188 15.18554688 C-0.96255695 11.45700248 -0.98124344 7.72851467 -1 4 C-1 1 -1 1 0 0 Z " fill="#7A7C7E" transform="translate(959,506)"/>
<path d="M0 0 C0.66 0.33 1.32 0.66 2 1 C-1.81439644 3.46136525 -5.6029314 5.10126437 -9.875 6.625 C-11.63457031 7.26308594 -11.63457031 7.26308594 -13.4296875 7.9140625 C-16.96457981 8.98922668 -20.33478391 9.57817206 -24 10 C-24 9.34 -24 8.68 -24 8 C-22.9378125 7.67386719 -21.875625 7.34773437 -20.78125 7.01171875 C-19.35400715 6.57082856 -17.92693444 6.12938735 -16.5 5.6875 C-15.76765137 5.4611084 -15.03530273 5.2347168 -14.28076172 5.00146484 C-10.50845531 3.82403528 -6.79694247 2.59241195 -3.125 1.125 C-2.09375 0.75375 -1.0625 0.3825 0 0 Z " fill="#E2E2E3" transform="translate(1219,530)"/>
<path d="M0 0 C0.99 0.99 1.98 1.98 3 3 C2.34 3 1.68 3 1 3 C1 14.22 1 25.44 1 37 C0.67 37 0.34 37 0 37 C-0.33 26.11 -0.66 15.22 -1 4 C-1.99 4 -2.98 4 -4 4 C-2.68 2.68 -1.36 1.36 0 0 Z " fill="#7A7C7F" transform="translate(602,506)"/>
<path d="M0 0 C0.33 0.66 0.66 1.32 1 2 C18.325 1.505 18.325 1.505 36 1 C35.67 1.66 35.34 2.32 35 3 C23.78 3 12.56 3 1 3 C0.67 3.66 0.34 4.32 0 5 C-0.66 4.01 -1.32 3.02 -2 2 C-1.34 1.34 -0.68 0.68 0 0 Z " fill="#7D8082" transform="translate(968,139)"/>
<path d="M0 0 C4.44529621 6.66794432 3.12162306 16.21287676 2.44921875 23.91796875 C2.30097656 24.60503906 2.15273438 25.29210937 2 26 C1.34 26.33 0.68 26.66 0 27 C0 18.09 0 9.18 0 0 Z " fill="#BCBDBF" transform="translate(649,307)"/>
<path d="M0 0 C1.134375 0.020625 2.26875 0.04125 3.4375 0.0625 C0.15693501 2.24954332 -3.10125982 3.36415435 -6.8125 4.5625 C-7.77736328 4.88154297 -7.77736328 4.88154297 -8.76171875 5.20703125 C-13.00139387 6.5975082 -17.26577821 7.86030841 -21.5625 9.0625 C-21.2325 8.0725 -20.9025 7.0825 -20.5625 6.0625 C-17.88293398 5.04591026 -15.3126246 4.2029986 -12.5625 3.4375 C-0.69633923 0.01221648 -0.69633923 0.01221648 0 0 Z " fill="#E7E8E9" transform="translate(700.5625,47.9375)"/>
<path d="M0 0 C-5.25931332 1.87195898 -10.51840245 3.46374683 -15.9375 4.8125 C-17.59072266 5.22435547 -17.59072266 5.22435547 -19.27734375 5.64453125 C-20.62505859 5.82048828 -20.62505859 5.82048828 -22 6 C-22.66 5.34 -23.32 4.68 -24 4 C-19.54772838 1.96492974 -15.09967274 1.13675451 -10.3125 0.3125 C-9.15524414 0.09883789 -9.15524414 0.09883789 -7.97460938 -0.11914062 C-2.24862637 -1.12431319 -2.24862637 -1.12431319 0 0 Z " fill="#D0D1D3" transform="translate(1194,540)"/>
<path d="M0 0 C1.71399656 4.09686981 0.13960655 7.5461471 -1.25 11.5 C-1.57677734 12.49580078 -1.57677734 12.49580078 -1.91015625 13.51171875 C-3.1486568 17.14030809 -4.48036468 20.09500869 -7 23 C-5.77078205 14.87248429 -3.1149283 7.58520709 0 0 Z " fill="#EDEEEE" transform="translate(1356,377)"/>
<path d="M0 0 C0 3 0 3 -2 6 C0.97 6 3.94 6 7 6 C7 6.33 7 6.66 7 7 C3.7 7 0.4 7 -3 7 C-1.02 9.97 -1.02 9.97 1 13 C-1.88437779 11.70700306 -3.87219421 10.34058637 -6 8 C-4.55746343 4.63408134 -2.66735273 2.48952921 0 0 Z " fill="#757779" transform="translate(972,493)"/>
<path d="M0 0 C-5.42013505 2.85788939 -10.96022179 5.7253328 -17 7 C-17.99 6.67 -18.98 6.34 -20 6 C-18.10435574 5.20788071 -16.20847629 4.41632424 -14.3125 3.625 C-13.25675781 3.18414063 -12.20101563 2.74328125 -11.11328125 2.2890625 C-10.08589844 1.86367188 -9.05851562 1.43828125 -8 1 C-7.10667969 0.59523438 -6.21335937 0.19046875 -5.29296875 -0.2265625 C-3 -1 -3 -1 0 0 Z " fill="#E6E7E7" transform="translate(507,531)"/>
<path d="M0 0 C0.66 0.33 1.32 0.66 2 1 C-0.11905463 3.17277714 -2.24472878 5.33826908 -4.375 7.5 C-4.97828125 8.12003906 -5.5815625 8.74007812 -6.203125 9.37890625 C-6.78320312 9.96542969 -7.36328125 10.55195313 -7.9609375 11.15625 C-8.49509277 11.70087891 -9.02924805 12.24550781 -9.57958984 12.80664062 C-11 14 -11 14 -13 14 C-11.43416404 9.96278439 -8.55826135 7.52929418 -5.375 4.75 C-4.859375 4.29109375 -4.34375 3.8321875 -3.8125 3.359375 C-2.5465398 2.23407704 -1.27392058 1.11627823 0 0 Z " fill="#828486" transform="translate(624,127)"/>
<path d="M0 0 C-12.48519362 5.55580866 -12.48519362 5.55580866 -19 6 C-19 5.34 -19 4.68 -19 4 C-16.39898714 3.13499112 -13.79493589 2.28273072 -11.1875 1.4375 C-10.44951172 1.19064453 -9.71152344 0.94378906 -8.95117188 0.68945312 C-3.33984375 -1.11328125 -3.33984375 -1.11328125 0 0 Z " fill="#E2E3E4" transform="translate(1571,534)"/>
<path d="M0 0 C-2.40746025 2.40746025 -3.69617926 2.49105426 -7 3.0625 C-10.61780675 3.67293653 -10.61780675 3.67293653 -14 5 C-16.3329866 5.04022391 -18.66706666 5.04320247 -21 5 C-18.44815262 1.79922923 -16.15780499 1.39680904 -12.1875 0.8125 C-11.17042969 0.65394531 -10.15335938 0.49539062 -9.10546875 0.33203125 C-6.04320835 0.00461976 -3.07703207 -0.05979285 0 0 Z " fill="#D7D8DA" transform="translate(1447,41)"/>
<path d="M0 0 C-3.25683728 2.17122485 -5.77087886 2.85187298 -9.5625 3.75 C-10.71878906 4.03359375 -11.87507813 4.3171875 -13.06640625 4.609375 C-14.51853516 4.80273438 -14.51853516 4.80273438 -16 5 C-16.66 4.34 -17.32 3.68 -18 3 C-11.99134482 0.34912271 -6.53154851 -0.13063097 0 0 Z " fill="#D3D4D6" transform="translate(1545,541)"/>
<path d="M0 0 C0.66 0 1.32 0 2 0 C1.74382807 2.56473312 1.47065547 5.12572337 1.1875 7.6875 C1.11724609 8.40873047 1.04699219 9.12996094 0.97460938 9.87304688 C0.47207497 14.27524829 -0.34634343 17.31396197 -3 21 C-4.2825732 18.4348536 -3.83262969 17.42104404 -3.22265625 14.6484375 C-3.03896484 13.79765625 -2.85527344 12.946875 -2.66601562 12.0703125 C-2.46685547 11.18085938 -2.26769531 10.29140625 -2.0625 9.375 C-1.86720703 8.4778125 -1.67191406 7.580625 -1.47070312 6.65625 C-0.98652104 4.43609799 -0.49605031 2.2175251 0 0 Z " fill="#E6E7E9" transform="translate(148,250)"/>
<path d="M0 0 C0.66 0.33 1.32 0.66 2 1 C3.70363822 1.22622081 5.41328701 1.40888473 7.125 1.5625 C8.03507813 1.64628906 8.94515625 1.73007812 9.8828125 1.81640625 C10.58148437 1.87699219 11.28015625 1.93757813 12 2 C12 2.33 12 2.66 12 3 C8.37 3 4.74 3 1 3 C1.99 4.65 2.98 6.3 4 8 C1.37812506 6.95125002 0.20628639 6.35068687 -1.25 3.875 C-1.4975 3.25625 -1.745 2.6375 -2 2 C-1.34 1.34 -0.68 0.68 0 0 Z " fill="#747678" transform="translate(611,497)"/>
<path d="M0 0 C1.31534494 3.65857532 0.65468309 6.08026481 -0.4375 9.75 C-0.86869141 11.22726562 -0.86869141 11.22726562 -1.30859375 12.734375 C-1.53675781 13.48203125 -1.76492188 14.2296875 -2 15 C-2.33 15 -2.66 15 -3 15 C-3.20749784 9.91630285 -2.63931134 5.82150395 -1 1 C-0.67 0.67 -0.34 0.34 0 0 Z " fill="#DFE0E1" transform="translate(863,249)"/>
<path d="M0 0 C0.66 0 1.32 0 2 0 C0.14285714 8.71428571 0.14285714 8.71428571 -3 11 C-2.44894091 7.0507432 -1.61064629 3.65079826 0 0 Z " fill="#E8E9E9" transform="translate(1708,392)"/>
<path d="M0 0 C0.66 0.33 1.32 0.66 2 1 C-0.97 3.97 -3.94 6.94 -7 10 C-7.33 9.01 -7.66 8.02 -8 7 C-5.36 4.69 -2.72 2.38 0 0 Z " fill="#6D6F71" transform="translate(240,101)"/>
<path d="M0 0 C-4 1.33333333 -8 2.66666667 -12 4 C-12.33 3.01 -12.66 2.02 -13 1 C-11.20994059 0.63779734 -9.41787943 0.28547531 -7.625 -0.0625 C-6.12839844 -0.35833984 -6.12839844 -0.35833984 -4.6015625 -0.66015625 C-2 -1 -2 -1 0 0 Z " fill="#DEDFE1" transform="translate(1194,540)"/>
<path d="M0 0 C-3.63 1.32 -7.26 2.64 -11 4 C-11 3.01 -11 2.02 -11 1 C-4.5 -1.125 -4.5 -1.125 0 0 Z " fill="#E2E3E4" transform="translate(1063,48)"/>
<path d="M0 0 C0.99 0.66 1.98 1.32 3 2 C1.19642667 5.17772443 -0.37886292 7.37886292 -3 10 C-2.01 6.7 -1.02 3.4 0 0 Z " fill="#EBEBEC" transform="translate(158,219)"/>
<path d="M0 0 C2.09350689 3.4019487 2.17942163 6.05272412 2 10 C1.34 9.67 0.68 9.34 0 9 C-0.99444068 5.65506316 -1.10348268 3.31044803 0 0 Z " fill="#CACBCD" transform="translate(668,269)"/>
</svg>
