<?xml version="1.0" encoding="UTF-8"?>
<svg version="1.1" xmlns="http://www.w3.org/2000/svg" width="400" height="400">
<path d="M0 0 C6.91244711 7.10959355 11.13935461 14.10032561 11.62890625 24.19140625 C11.16593747 35.71220624 4.73943224 43.14444101 -3.38696289 50.7265625 C-7.49919666 54.40204227 -11.73572712 57.21090976 -16.62109375 59.75390625 C-17.35537598 60.13699951 -18.0896582 60.52009277 -18.84619141 60.91479492 C-58.76128784 81.08398204 -111.01155729 81.17044997 -152.92578125 67.65234375 C-170.42477754 61.68559763 -187.37443739 53.18041494 -196.78515625 36.48046875 C-199.97668163 29.53707383 -200.14539 20.64195494 -197.9375 13.39453125 C-189.75014597 -3.89286546 -171.93201734 -13.04161259 -154.77880859 -19.51171875 C-108.94868691 -35.70690285 -37.29523118 -35.37958527 0 0 Z M-98.421875 -17.68359375 C-102.39775092 -17.24411869 -104.237476 -16.34737617 -107.02734375 -13.41015625 C-112.2234438 -6.5385022 -116.99093746 0.30187527 -115.80859375 9.25390625 C-113.55537082 12.58867619 -110.87484601 14.08891098 -106.94921875 14.99609375 C-87.86659315 17.29436618 -59.85435284 7.10501931 -45.05859375 -4.43359375 C-42.45991627 -6.56671049 -42.45991627 -6.56671049 -42.80859375 -9.74609375 C-60.76709056 -16.56271007 -79.3596686 -18.13949106 -98.421875 -17.68359375 Z M-181.80859375 9.25390625 C-185.70857885 14.12888762 -188.18097742 18.91137141 -187.80859375 25.25390625 C-186.63059478 32.83642837 -182.46698445 38.24648086 -176.80859375 43.25390625 C-174.17402218 44.91784619 -171.70605918 46.06387581 -168.80859375 47.25390625 C-165.887369 44.85432877 -164.38316215 42.55523434 -162.953125 39.12890625 C-155.5843523 22.0999566 -145.13466464 6.21859929 -133.171875 -7.92578125 C-131.60877701 -9.63386122 -131.60877701 -9.63386122 -131.80859375 -11.74609375 C-148.99071126 -12.2714069 -169.74081812 -2.97607066 -181.80859375 9.25390625 Z M-21.80859375 1.25390625 C-22.07897461 1.79055908 -22.34935547 2.32721191 -22.62792969 2.88012695 C-43.36422104 43.80953354 -43.36422104 43.80953354 -56.80859375 57.25390625 C-56.80859375 58.24390625 -56.80859375 59.23390625 -56.80859375 60.25390625 C-50.60124595 59.72132316 -45.07435032 58.70019945 -39.18359375 56.69140625 C-38.41088135 56.4289209 -37.63816895 56.16643555 -36.84204102 55.89599609 C-24.25245467 51.44775303 -11.05166148 45.24602158 -3.24609375 33.94140625 C-1.04714077 28.30061382 -0.77136448 22.91013943 -2.43359375 17.05078125 C-5.35329007 10.42932709 -10.86258541 5.21791181 -16.80859375 1.25390625 C-19.43390899 1.08677056 -19.43390899 1.08677056 -21.80859375 1.25390625 Z M-144.05859375 52.87890625 C-146.0245245 55.03360655 -146.0245245 55.03360655 -145.7421875 57.2734375 C-144.95559295 59.45242008 -144.95559295 59.45242008 -142.640625 60.4140625 C-128.46418206 64.65048982 -113.70867927 66.46334846 -98.93359375 66.69140625 C-98.13236084 66.71364258 -97.33112793 66.73587891 -96.50561523 66.75878906 C-90.83421624 66.73724983 -86.51738074 65.46931154 -81.80859375 62.25390625 C-76.53056338 56.74152318 -74.1336379 50.08942719 -73.49609375 42.56640625 C-73.8296305 39.0309167 -74.27851273 37.69028057 -76.80859375 35.25390625 C-96.21521974 28.78503092 -129.42661184 39.84169076 -144.05859375 52.87890625 Z " fill="#295BA7" transform="translate(294.80859375,137.74609375)"/>
<path d="M0 0 C0.87857666 0.00201416 1.75715332 0.00402832 2.66235352 0.00610352 C5.92339346 0.01651498 9.18435859 0.04443737 12.4453125 0.0703125 C23.3971875 0.1321875 23.3971875 0.1321875 34.5703125 0.1953125 C34.5703125 15.0453125 34.5703125 29.8953125 34.5703125 45.1953125 C29.2903125 45.1953125 24.0103125 45.1953125 18.5703125 45.1953125 C18.5703125 41.5653125 18.5703125 37.9353125 18.5703125 34.1953125 C9.9903125 34.1953125 1.4103125 34.1953125 -7.4296875 34.1953125 C-7.4296875 37.8253125 -7.4296875 41.4553125 -7.4296875 45.1953125 C-13.0396875 45.1953125 -18.6496875 45.1953125 -24.4296875 45.1953125 C-24.49877402 40.60489677 -24.55843875 36.01630373 -24.59448242 31.42578125 C-24.60951619 29.86614856 -24.62994885 28.30655778 -24.65600586 26.74707031 C-24.69262961 24.49794134 -24.70946771 22.24937403 -24.72265625 20 C-24.73814011 19.309133 -24.75362396 18.61826599 -24.76957703 17.90646362 C-24.77117346 13.25488166 -23.85488998 10.15151279 -21.4296875 6.1953125 C-15.0892558 0.02624382 -8.36731855 -0.09098805 0 0 Z M-7.4296875 14.1953125 C-7.4296875 17.1653125 -7.4296875 20.1353125 -7.4296875 23.1953125 C0.8203125 23.1953125 9.0703125 23.1953125 17.5703125 23.1953125 C17.5703125 19.8953125 17.5703125 16.5953125 17.5703125 13.1953125 C13.59116091 13.16644266 9.61203597 13.14855844 5.6328125 13.1328125 C4.49650391 13.12443359 3.36019531 13.11605469 2.18945312 13.10742188 C1.10986328 13.10419922 0.03027344 13.10097656 -1.08203125 13.09765625 C-2.08226318 13.09241943 -3.08249512 13.08718262 -4.11303711 13.08178711 C-6.39175978 12.93350155 -6.39175978 12.93350155 -7.4296875 14.1953125 Z " fill="#285BA6" transform="translate(331.4296875,234.8046875)"/>
<path d="M0 0 C6.58436076 -0.09194608 13.16648476 -0.17155205 19.75097656 -0.21972656 C21.98966021 -0.23981316 24.22829158 -0.2670878 26.46679688 -0.30175781 C29.68893349 -0.35040464 32.91037501 -0.37299874 36.1328125 -0.390625 C37.12991241 -0.41127014 38.12701233 -0.43191528 39.15432739 -0.45318604 C44.95410076 -0.4550491 48.47788453 -0.01242015 53 4 C57.7069194 8.76226566 56.47377569 15.0960081 56.4375 21.375 C56.4674707 23.20417969 56.4674707 23.20417969 56.49804688 25.0703125 C56.49192852 36.27913312 56.49192852 36.27913312 52 41 C48.98283837 43.671187 47.15792383 44.3722994 43.13964844 44.34057617 C42.17895447 44.34034958 41.2182605 44.34012299 40.22845459 44.33988953 C39.19915833 44.32440567 38.16986206 44.30892181 37.109375 44.29296875 C35.51974945 44.28660149 35.51974945 44.28660149 33.89801025 44.28010559 C30.51508113 44.2633203 27.13274891 44.22566755 23.75 44.1875 C21.45573777 44.17245301 19.1614662 44.15876463 16.8671875 44.14648438 C11.244377 44.11596985 5.62285621 44.05724627 0 44 C0 29.48 0 14.96 0 0 Z M16 12 C16 18.93 16 25.86 16 33 C19.79171347 33.02687041 23.58323823 33.04677587 27.375 33.0625 C28.99535156 33.07506836 28.99535156 33.07506836 30.6484375 33.08789062 C31.6796875 33.09111328 32.7109375 33.09433594 33.7734375 33.09765625 C35.20308838 33.10551147 35.20308838 33.10551147 36.66162109 33.11352539 C39.02324406 33.15642599 39.02324406 33.15642599 41 32 C42.12050151 28.63849548 42.13296652 26.03713274 42.125 22.5 C42.12757813 21.3553125 42.13015625 20.210625 42.1328125 19.03125 C42.13684408 15.95320141 42.13684408 15.95320141 41 13 C38.44276771 11.72138385 36.63262898 11.88663391 33.7734375 11.90234375 C32.2265625 11.90717773 32.2265625 11.90717773 30.6484375 11.91210938 C29.56820313 11.92048828 28.48796875 11.92886719 27.375 11.9375 C26.28703125 11.94201172 25.1990625 11.94652344 24.078125 11.95117188 C21.38539338 11.9629821 18.69268991 11.98091795 16 12 Z " fill="#295BA6" transform="translate(249,236)"/>
<path d="M0 0 C7.33298121 -0.09178975 14.66397248 -0.17144438 21.99707031 -0.21972656 C24.49193065 -0.23985164 26.98674378 -0.26715452 29.48144531 -0.30175781 C33.06587368 -0.35023457 36.64967885 -0.3729602 40.234375 -0.390625 C41.35116638 -0.41127014 42.46795776 -0.43191528 43.61859131 -0.45318604 C44.65936829 -0.45348816 45.70014526 -0.45379028 46.77246094 -0.45410156 C47.68735291 -0.46298401 48.60224487 -0.47186646 49.54486084 -0.48101807 C52.76668462 0.1502111 53.93711174 1.50827123 56 4 C57.63945963 7.27891925 57.12030178 10.90613534 57.09765625 14.5078125 C57.0962413 15.34843231 57.09482635 16.18905212 57.09336853 17.05514526 C57.08776237 19.74513275 57.07520886 22.43503759 57.0625 25.125 C57.05748579 26.94661338 57.05292275 28.76822807 57.04882812 30.58984375 C57.03779094 35.05992777 57.0205222 39.52994986 57 44 C52.05 44 47.1 44 42 44 C41.93941406 41.84597656 41.87882812 39.69195312 41.81640625 37.47265625 C41.75465759 35.3942499 41.69125309 33.31590025 41.62768555 31.23754883 C41.5842837 29.7893576 41.54261256 28.34111346 41.50268555 26.89282227 C41.44510938 24.81510441 41.38137972 22.73765427 41.31640625 20.66015625 C41.26141968 18.78275757 41.26141968 18.78275757 41.20532227 16.86743164 C41.32196094 14.10369496 41.32196094 14.10369496 40 13 C38.22130274 12.84235595 36.43681524 12.74899323 34.65234375 12.68359375 C33.19429321 12.62643188 33.19429321 12.62643188 31.70678711 12.56811523 C30.46292236 12.52501221 29.21905762 12.48190918 27.9375 12.4375 C23.998125 12.293125 20.05875 12.14875 16 12 C16 22.56 16 33.12 16 44 C10.72 44 5.44 44 0 44 C0 29.48 0 14.96 0 0 Z " fill="#295BA7" transform="translate(189,236)"/>
<path d="M0 0 C4.95 0 9.9 0 15 0 C15 10.89 15 21.78 15 33 C20.878125 32.8453125 20.878125 32.8453125 26.875 32.6875 C28.10976074 32.66260498 29.34452148 32.63770996 30.61669922 32.61206055 C31.58623535 32.57894775 32.55577148 32.54583496 33.5546875 32.51171875 C35.04718018 32.47244263 35.04718018 32.47244263 36.56982422 32.43237305 C37.77276123 32.21834839 37.77276123 32.21834839 39 32 C41.38948197 28.41577704 41.30233168 26.62767404 41.4140625 22.36328125 C41.45273438 21.06455078 41.49140625 19.76582031 41.53125 18.42773438 C41.56270517 17.05599427 41.59395251 15.68424939 41.625 14.3125 C41.66319197 12.92901215 41.70224442 11.54554777 41.7421875 10.16210938 C41.83660267 6.77496528 41.91939572 3.38750089 42 0 C46.95 0 51.9 0 57 0 C57.1240061 5.15941688 57.21452867 10.31795822 57.2746582 15.47851562 C57.29973467 17.23225015 57.33380495 18.98588086 57.37719727 20.73925781 C57.43815604 23.26653706 57.46627719 25.79242981 57.48828125 28.3203125 C57.51408768 29.09867462 57.5398941 29.87703674 57.56648254 30.6789856 C57.56854623 34.7244172 57.2123715 37.25626255 54.65698242 40.47998047 C51.14708894 43.80894496 48.81011112 44.12547586 44.16137695 44.11352539 C42.69019157 44.11341209 42.69019157 44.11341209 41.18928528 44.11329651 C40.13295395 44.10813522 39.07662262 44.10297394 37.98828125 44.09765625 C36.36323921 44.09553383 36.36323921 44.09553383 34.70536804 44.09336853 C31.24105075 44.08776559 27.7767978 44.07521258 24.3125 44.0625 C21.96549572 44.05748538 19.61849044 44.05292241 17.27148438 44.04882812 C11.51427811 44.03864559 5.75721118 44.01907063 0 44 C0 29.48 0 14.96 0 0 Z " fill="#295BA6" transform="translate(130,236)"/>
<path d="M0 0 C4.95 0 9.9 0 15 0 C15 4.95 15 9.9 15 15 C22.92 15 30.84 15 39 15 C39 10.05 39 5.1 39 0 C43.95 0 48.9 0 54 0 C54 14.52 54 29.04 54 44 C49.05 44 44.1 44 39 44 C39 38.06 39 32.12 39 26 C31.08 26 23.16 26 15 26 C15 31.94 15 37.88 15 44 C10.05 44 5.1 44 0 44 C0 29.48 0 14.96 0 0 Z " fill="#285BA6" transform="translate(17,236)"/>
<path d="M0 0 C12.111128 -1.93579505 12.111128 -1.93579505 16.85595703 1.24365234 C20.72725975 4.75680258 23.85987046 8.83812473 27 13 C27.66 13.66 28.32 14.32 29 15 C29.31525635 14.54560547 29.6305127 14.09121094 29.95532227 13.62304688 C38.95069663 1.03759037 38.95069663 1.03759037 44.08789062 -0.71044922 C48.47217513 -1.3025098 52.6559946 -0.81112134 57 0 C54.06904818 4.52401034 50.91253561 8.77904729 47.5625 13 C47.09779297 13.59039062 46.63308594 14.18078125 46.15429688 14.7890625 C45.46110352 15.66691406 45.46110352 15.66691406 44.75390625 16.5625 C44.29927002 17.14435059 43.84463379 17.72620117 43.3762207 18.32568359 C42.07319879 19.91094602 40.6400299 21.38656169 39.203125 22.8515625 C36.25266523 27.06799968 36.22360066 30.34497491 36.1875 35.375 C36.16236328 36.20644531 36.13722656 37.03789062 36.11132812 37.89453125 C36.05286104 39.92918593 36.0234685 41.96464074 36 44 C31.05 44 26.1 44 21 44 C21.05542969 42.77925781 21.11085938 41.55851562 21.16796875 40.30078125 C21.32254712 30.31827312 20.56425367 23.78898861 13.51904297 16.45922852 C12.51822743 15.45922348 11.5084515 14.4681026 10.48974609 13.48632812 C8.0614027 11.06355615 5.96562505 8.42001199 3.8125 5.75 C2.70841797 4.41195312 2.70841797 4.41195312 1.58203125 3.046875 C0 1 0 1 0 0 Z " fill="#295BA7" transform="translate(72,236)"/>
<path d="M0 0 C4.95 0 9.9 0 15 0 C15 14.85 15 29.7 15 45 C10.05 45 5.1 45 0 45 C0 30.15 0 15.3 0 0 Z " fill="#295BA7" transform="translate(368,236)"/>
</svg>
