<?xml version="1.0" encoding="utf-8"?>
<!-- Generator: Adobe Illustrator 24.2.0, SVG Export Plug-In . SVG Version: 6.00 Build 0)  -->
<svg version="1.1" id="Layer_1" xmlns="http://www.w3.org/2000/svg" xmlns:xlink="http://www.w3.org/1999/xlink" x="0px" y="0px"
	 viewBox="0 0 1000 1000" style="enable-background:new 0 0 1000 1000;" xml:space="preserve">
<style type="text/css">
	.st0{fill:#D0D8EC;}
	.st1{fill:url(#SVGID_1_);}
	.st2{fill:#E5CF92;}
	.st3{fill:#FFFFFF;}
	.st4{fill:url(#SVGID_2_);}
	.st5{fill:url(#SVGID_3_);}
	.st6{fill:url(#SVGID_4_);}
	.st7{fill:url(#SVGID_5_);}
	.st8{fill:url(#SVGID_6_);}
	.st9{fill:url(#SVGID_7_);}
	.st10{fill:url(#SVGID_8_);}
	.st11{fill:url(#SVGID_9_);}
	.st12{fill:url(#SVGID_10_);}
	.st13{fill:url(#SVGID_11_);}
	.st14{fill:url(#SVGID_12_);}
	.st15{fill:url(#SVGID_13_);}
	.st16{fill:url(#SVGID_14_);}
	.st17{fill:url(#SVGID_15_);}
	.st18{fill:url(#SVGID_16_);}
	.st19{fill:url(#SVGID_17_);}
	.st20{fill:url(#SVGID_18_);}
	.st21{fill:url(#SVGID_19_);}
	.st22{fill:url(#SVGID_20_);}
	.st23{fill:url(#SVGID_21_);}
	.st24{fill:url(#SVGID_22_);}
	.st25{fill:url(#SVGID_23_);}
	.st26{fill:url(#SVGID_24_);}
	.st27{fill:url(#SVGID_25_);}
	.st28{fill:url(#SVGID_26_);}
	.st29{fill:url(#SVGID_27_);}
	.st30{fill:url(#SVGID_28_);}
	.st31{fill:url(#SVGID_29_);}
	.st32{fill:url(#SVGID_30_);}
	.st33{fill:url(#SVGID_31_);}
	.st34{fill:url(#SVGID_32_);}
	.st35{fill:url(#SVGID_33_);}
	.st36{fill:url(#SVGID_34_);}
	.st37{fill:url(#SVGID_35_);}
</style>
<g>
	<path class="st0" d="M145.3,417.8c3.9-9,7.4-16.3,32.3-16.3c24.9,0,135.6,0,143.5,0c7.9,0,15.8-4.1,15.8-15.4c0-11.2,0-35.6,0-40.1
		c0-4.5,4.5-10.8,16.4-10.8c11.8,0,288.8,0,297.4,0c8.4,0,15.3,4.5,15.3,15.2c0,10.8,0,23.2,0,31.7c0,8.5,3.9,17.5,16.3,17.5
		c12.4,0,230,0,238.6,0c8.4,0,19.8,2.3,14.6,13c-5,10.8-82.4,167.8-87.7,178.4c-2,4-3.6,9.3-19.3,9.3c-15.6,0-139.7,0-146.5,0
		c-7.1,0-18.4,0-18.4,13.5c0,13.4,0,32,0,37.4c0,5.4-4.1,13.5-16.8,13.5c-12.8,0-285.1,0-294.2,0c-9.3,0-16-4.8-16-14
		c0-9.2,0-25.6,0-32.9c0-7.2-3.8-17.7-14.6-17.7c-10.7,0-239,0-246.9,0c-7.8,0-15.2-6-10.4-17.7C69.2,570.8,145.3,417.8,145.3,417.8
		z"/>
	
		<linearGradient id="SVGID_1_" gradientUnits="userSpaceOnUse" x1="1858.5188" y1="561.6201" x2="1858.5188" y2="699.1266" gradientTransform="matrix(1.0366 2.800000e-03 -0.4842 0.9634 -1501.4146 -113.2424)">
		<stop  offset="0" style="stop-color:#D0D8EC"/>
		<stop  offset="0.1854" style="stop-color:#96AEC4"/>
		<stop  offset="1" style="stop-color:#191E25"/>
	</linearGradient>
	<polygon class="st1" points="157.7,430.8 151,430.7 83.4,564.9 90.4,564.9 	"/>
	<path class="st2" d="M322.7,584c-19.6,0-183.7,0-231,0c-8.1,0-10.9-3.7-7.8-10c17.5-34.7,75-149.1,76.5-152.2
		c1.8-3.5,6-7.9,13.8-7.9c7.8,0,141.4,0,155,0c16.1,0,18.8-7,18.8-19.8c0-12.6,0-32.7,0-37.8c0-5.1,3.4-8.4,9.2-8.4
		c6,0,276.3,0,283.9,0c7.6,0,11,2.5,11,7.6c0,5.1,0,16.9,0,27.9c0,11.1-2.1,28.9,22.4,28.9c20.5,0,181.7,0,234.6,0
		c10.6,0,13.3,7,7.8,18.3c-20.8,41.9-71.9,141.2-73.4,144.5c-2.1,4.3-8.2,8-18.3,8c-40.4,0-143.8,0-154,0
		c-12.6,0-25.3,8.5-25.3,21.2c0,7.9,0,22.5,0,32.2c0,6-3.5,10.2-9.9,10.2c-49.3,0-267.8,0-275.4,0c-8.6,0-11.7-4.9-11.7-11.3
		c0-9.8,0-23.3,0-29.3C348.9,595.7,342.1,584,322.7,584z"/>
	<path class="st3" d="M630.7,576.3l32.4,33.8c0,0,2.3-7.4,11-9.3L637.8,567C637.8,567,632,570.3,630.7,576.3z"/>
	<path class="st3" d="M323.4,600.4c0,0,13,0.4,13,17.5l30.1-44.4l-8.5-5.9L323.4,600.4z"/>
	<path class="st3" d="M642.6,432.3l34.1-33.2c0,0-4.6-0.6-9.2-8l-33.8,34.4L642.6,432.3z"/>
	<path class="st3" d="M627.9,364.5l31.4-26.9c0,0,3.5,2,5,5.2l-32.9,30.3L627.9,364.5z"/>
	<path class="st3" d="M337.1,347.3c0-5.6,5.3-12.1,13.6-12.1l24,29.5c0,0-7.2,0-8.2,2.7c-1.2,2.6-2.3,8.3-2.3,8.3L337.1,347.3z"/>
	<path class="st3" d="M326.8,400.6c0,0,10.3-1.6,10.3-12.6l23.6,27.9l-15,11L326.8,400.6z"/>
	<linearGradient id="SVGID_2_" gradientUnits="userSpaceOnUse" x1="537.5228" y1="299.7928" x2="619.0508" y2="381.3209">
		<stop  offset="0" style="stop-color:#E7EBF5"/>
		<stop  offset="0.8989" style="stop-color:#94A2BD"/>
		<stop  offset="0.9551" style="stop-color:#426581"/>
		<stop  offset="1" style="stop-color:#E7EBF5"/>
	</linearGradient>
	<path class="st4" d="M650.7,335.2c-3.5,0-75.9,0-148.6,0l-1.1,12.7c67.5,0,134.3,0,136.5,0c4.5,0,7,1.2,8.7,4.5l15.1-13.4
		C661.4,339,657.6,335.2,650.7,335.2z"/>
	<linearGradient id="SVGID_3_" gradientUnits="userSpaceOnUse" x1="382.3295" y1="382.3273" x2="465.7753" y2="298.8815">
		<stop  offset="0" style="stop-color:#E7EBF5"/>
		<stop  offset="3.932600e-02" style="stop-color:#426581"/>
		<stop  offset="8.988800e-02" style="stop-color:#94A2BD"/>
		<stop  offset="1" style="stop-color:#E7EBF5"/>
	</linearGradient>
	<path class="st5" d="M350.7,335.2c-3.7,0-7.9,1.9-10,4.5l9.7,10.7c0,0,2-2.5,9.9-2.5c3.9,0,72.6,0,140.7,0l1.1-12.7
		C427.6,335.2,352.7,335.2,350.7,335.2z"/>
	<linearGradient id="SVGID_4_" gradientUnits="userSpaceOnUse" x1="328.9724" y1="386.1627" x2="356.0803" y2="360.8842">
		<stop  offset="0" style="stop-color:#E7EBF5"/>
		<stop  offset="0.1573" style="stop-color:#D0D8EC"/>
		<stop  offset="0.8371" style="stop-color:#D0D8EC"/>
		<stop  offset="1" style="stop-color:#E7EBF5"/>
	</linearGradient>
	<path class="st6" d="M338.3,341.8l10.2,12.5c0,0-0.2,3.5-0.2,5.9c0,2.4,0,36,0,38.4c0,2.4-1.6,6.4-1.6,6.4L336,393.7
		c0,0,1.2-1.5,1.2-7.6c0-6.1,0-36.9,0-38.7C337.1,344.1,338.3,341.8,338.3,341.8z"/>
	
		<linearGradient id="SVGID_5_" gradientUnits="userSpaceOnUse" x1="-7440.7671" y1="387.1517" x2="-7412.0005" y2="360.3263" gradientTransform="matrix(-1 0 0 1 -6766.2354 0)">
		<stop  offset="0" style="stop-color:#E7EBF5"/>
		<stop  offset="0.1573" style="stop-color:#D0D8EC"/>
		<stop  offset="0.8371" style="stop-color:#D0D8EC"/>
		<stop  offset="1" style="stop-color:#E7EBF5"/>
	</linearGradient>
	<path class="st7" d="M663.2,341.8l-10.8,11.4c0,0-0.3,4.4-0.3,6.8c0,2.5,0.3,35.3,0.3,37.7c0,2.4,3.7,6.8,3.7,6.8l12.8-11.5
		c0,0-3-1-3-7.1c0-6.1,0-36.9,0-38.7C665.9,344.1,663.2,341.8,663.2,341.8z"/>
	<linearGradient id="SVGID_6_" gradientUnits="userSpaceOnUse" x1="200.5316" y1="455.8749" x2="294.0941" y2="362.3125">
		<stop  offset="2.247200e-02" style="stop-color:#426581"/>
		<stop  offset="0.1292" style="stop-color:#94A2BD"/>
		<stop  offset="1" style="stop-color:#E7EBF5"/>
	</linearGradient>
	<path class="st8" d="M154,406.3l8.9,11.9c0,0,3.5-4.4,11.4-4.4c7.8,0,151.6,0,157.2,0c5.4,0,9.5-2.4,9.5-2.4L330.8,399
		c0,0-5.1,2.4-8.8,2.4c-4.2,0-143.4,0.1-150.8,0.1C160.3,401.5,154,406.3,154,406.3z"/>
	<linearGradient id="SVGID_7_" gradientUnits="userSpaceOnUse" x1="83.2625" y1="587.9547" x2="72.3201" y2="572.3273">
		<stop  offset="5.618000e-03" style="stop-color:#191E25"/>
		<stop  offset="0.1067" style="stop-color:#FFFFFF"/>
		<stop  offset="0.1854" style="stop-color:#96AEC4"/>
		<stop  offset="0.2416" style="stop-color:#191E25"/>
		<stop  offset="0.5337" style="stop-color:#5D748B"/>
		<stop  offset="0.7584" style="stop-color:#191E25"/>
		<stop  offset="1" style="stop-color:#191E25"/>
	</linearGradient>
	<path class="st9" d="M89.1,562.6c0,0-5.8,0.9-9.7,12.5l-16.1,11.3c0,0-1.3,4.7,1.1,8.3c2.4,3.7,6.1,4.2,6.1,4.2L91.4,584
		c0,0-11.9-0.7-6.9-9.3C89.3,565.9,89.1,562.6,89.1,562.6z"/>
	<linearGradient id="SVGID_8_" gradientUnits="userSpaceOnUse" x1="161.6309" y1="477.4989" x2="77.1915" y2="520.4717">
		<stop  offset="0" style="stop-color:#96AEC4"/>
		<stop  offset="1" style="stop-color:#191E25"/>
	</linearGradient>
	<path class="st10" d="M79.7,575l77.7-154.8c0,0-21.2,18.1-34,44.5C110.6,491.1,67.5,575.8,66,578.9c-1.5,2.9-2.9,8.2-2.9,8.2
		L79.7,575z"/>
	<linearGradient id="SVGID_9_" gradientUnits="userSpaceOnUse" x1="207.5144" y1="610.6741" x2="201.0255" y2="573.8736">
		<stop  offset="0" style="stop-color:#ABBBCA"/>
		<stop  offset="1" style="stop-color:#191E25"/>
	</linearGradient>
	<path class="st11" d="M70.4,599.6l21.3-15.4c0,0,225.2,0,231,0c5.8,0,16.2,4.8,16.2,4.8L328,601.5c0,0-2.7-1.2-8.8-1.2
		C313.2,600.3,70.4,599.6,70.4,599.6z"/>
	<linearGradient id="SVGID_10_" gradientUnits="userSpaceOnUse" x1="336.8098" y1="625.787" x2="347.6179" y2="625.787">
		<stop  offset="5.618000e-03" style="stop-color:#5D748B"/>
		<stop  offset="0.4888" style="stop-color:#96AEC4"/>
	</linearGradient>
	<path class="st12" d="M334.1,608.2l11.4-13.5c0,0,3.4,5.1,3.4,11.3c0,6.1,0,38.4,0,38.4l-10.8,12.5c0,0-1.7-3.9-1.7-8.4
		c0-4.7,0-28.7,0-32.2C336.4,612.7,334.1,608.2,334.1,608.2z"/>
	
		<linearGradient id="SVGID_11_" gradientUnits="userSpaceOnUse" x1="-7427.2988" y1="624.5239" x2="-7414.0005" y2="624.5239" gradientTransform="matrix(-1 0 0 1 -6766.5 0)">
		<stop  offset="5.618000e-03" style="stop-color:#5D748B"/>
		<stop  offset="0.3202" style="stop-color:#96AEC4"/>
	</linearGradient>
	<path class="st13" d="M664.1,608.7L649.4,594c0,0-3.4,1.8-3.4,7.9c0,6.2,0,38.5,0,38.5l16.7,14.6c0,0,0.4-3.9,0.4-8.4
		c0-4.6,0-28.5,0-32.1C663.1,610.9,664.1,608.7,664.1,608.7z"/>
	<linearGradient id="SVGID_12_" gradientUnits="userSpaceOnUse" x1="560.7222" y1="687.84" x2="597.1429" y2="624.7574">
		<stop  offset="0" style="stop-color:#ABBBCA"/>
		<stop  offset="0.236" style="stop-color:#ABBBCA"/>
		<stop  offset="1" style="stop-color:#191E25"/>
	</linearGradient>
	<path class="st14" d="M659.2,660.5l-16.5-15.6c0,0-1.2,1.9-9.4,1.9c-8.2,0-131.6,0-131.6,0v17.9c0,0,140.6,0,145.6,0
		C652.3,664.7,658,661.4,659.2,660.5z"/>
	<linearGradient id="SVGID_13_" gradientUnits="userSpaceOnUse" x1="407.2813" y1="628.2559" x2="443.9863" y2="691.8308">
		<stop  offset="0" style="stop-color:#191E25"/>
		<stop  offset="0.7753" style="stop-color:#ABBBCA"/>
		<stop  offset="0.9438" style="stop-color:#ABBBCA"/>
	</linearGradient>
	<path class="st15" d="M501.8,664.7v-17.9c0,0-138,0-140.6,0c-2.6,0-4.3-0.4-4.3-0.4l-13.6,16.1c0,0,3.3,2.3,12.9,2.3
		C365.5,664.8,501.8,664.7,501.8,664.7z"/>
	<linearGradient id="SVGID_14_" gradientUnits="userSpaceOnUse" x1="261.4726" y1="386.8871" x2="425.3549" y2="670.7397">
		<stop  offset="0" style="stop-color:#F9F2D3"/>
		<stop  offset="0.4607" style="stop-color:#F5E5A3"/>
		<stop  offset="1" style="stop-color:#BE9968"/>
	</linearGradient>
	<path class="st16" d="M381,364.5c-7.5,0-15.2,4.2-15.2,12.6c0,8.6,0,33.1,0,41.5c0,8.5-5.1,11.9-11,11.9c-5.1,0-130.4,0-168.6,0
		c-6.8,0-12.1,2.8-15.1,8.5c-2.5,4.8-44.7,89.1-58.2,116.4c-2.9,6-0.4,9.5,7.2,9.5c47.7,0,226.7,0,235.5,0
		c10.1,0,11.9,9.3,11.9,18.6c0,9.4,0,26.3,0,32.3c0,6,5.9,12.7,12.7,12.7c3.3,0,61.1,0,118.5,0V364.5
		C441.6,364.5,384.8,364.5,381,364.5z"/>
	<linearGradient id="SVGID_15_" gradientUnits="userSpaceOnUse" x1="717.995" y1="628.0624" x2="763.968" y2="576.817">
		<stop  offset="5.618000e-03" style="stop-color:#5D748B"/>
		<stop  offset="0.6067" style="stop-color:#96AEC4"/>
		<stop  offset="1" style="stop-color:#CFE0EF"/>
	</linearGradient>
	<path class="st17" d="M657,587.9l13.5,13.9c0,0,3.4-1.8,19.2-1.8c15.9,0,141.8,0,144.7,0c3.1,0,7.2-1.5,7.2-1.5L765.1,583
		c0,0-88.5,0.1-92.7,0C663.2,582.8,657,587.9,657,587.9z"/>
	<linearGradient id="SVGID_16_" gradientUnits="userSpaceOnUse" x1="763.9463" y1="348.7912" x2="824.967" y2="454.4821">
		<stop  offset="5.618000e-03" style="stop-color:#E7EBF5"/>
		<stop  offset="0.8146" style="stop-color:#8194B0"/>
		<stop  offset="0.9045" style="stop-color:#426581"/>
		<stop  offset="1" style="stop-color:#191E25"/>
	</linearGradient>
	<path class="st18" d="M662.1,409.7l12.3-11.3c0,0,2.5,1.4,8.5,1.4c5.9,0,230.6,0,236.6,0c5.9,0,11.9,1.6,11.9,1.6l-18.5,11
		c0,0-4-0.5-10.9-0.5c-7,0-222.6,0-227.9,0C668.6,411.9,662.1,409.7,662.1,409.7z"/>
	<linearGradient id="SVGID_17_" gradientUnits="userSpaceOnUse" x1="834.6806" y1="590.1198" x2="934.1758" y2="417.7889">
		<stop  offset="5.618000e-03" style="stop-color:#8E9EB0"/>
		<stop  offset="0.1404" style="stop-color:#E7EBF5"/>
		<stop  offset="0.8146" style="stop-color:#8194B0"/>
		<stop  offset="0.9045" style="stop-color:#426581"/>
		<stop  offset="1" style="stop-color:#191E25"/>
	</linearGradient>
	<path class="st19" d="M919.6,418.4l16.6-13.6c0,0,2.3,2.2-0.4,8.2c-2.6,6.1-87.3,178.4-89,180.6c-1.7,2.1-4.5,4.3-4.5,4.3
		l-7.8-15.6c0,0,7-2.4,10.2-8.6c3.1-6.2,71.9-141.6,73.9-145.6C920.7,424.1,919.6,418.4,919.6,418.4z"/>
	<linearGradient id="SVGID_18_" gradientUnits="userSpaceOnUse" x1="800.3237" y1="592.9921" x2="835.5365" y2="572.6619">
		<stop  offset="0" style="stop-color:#191E25"/>
		<stop  offset="0.7303" style="stop-color:#191E25"/>
		<stop  offset="0.8146" style="stop-color:#ABBBCA"/>
		<stop  offset="0.8876" style="stop-color:#191E25"/>
	</linearGradient>
	<path class="st20" d="M767.4,583.7l72.3,14.7c0,0,4.6-1.9,6.8-5.7c2.2-3.6,0-4.8-2.6-2.5c-2.7,2.2-7.2-1.6-4.9-4.2
		c2.2-2.7,4.6-10.9,4.6-10.9s-7.3,8.2-16.2,8.2C818.2,583.3,767.4,583.7,767.4,583.7z"/>
	<linearGradient id="SVGID_19_" gradientUnits="userSpaceOnUse" x1="165.2549" y1="515.8177" x2="280.5073" y2="631.0701">
		<stop  offset="0" style="stop-color:#D2BD73"/>
		<stop  offset="0.3315" style="stop-color:#886633"/>
		<stop  offset="0.4663" style="stop-color:#886633"/>
		<stop  offset="1" style="stop-color:#D2BD73"/>
	</linearGradient>
	<path class="st21" d="M359,568l-18.4,19.5c0,0,3.6-3.7-22.7-3.7c-26.4,0-226.3,0-226.3,0s15.1-9,62.5-12.1
		c47.4-3.2,103.3-4.8,131.7-4.2C314.2,568,359,568,359,568z"/>
	
		<linearGradient id="SVGID_20_" gradientUnits="userSpaceOnUse" x1="-7543.3032" y1="532.2194" x2="-7460.9331" y2="614.5896" gradientTransform="matrix(-1 0 0 1 -6766.5 0)">
		<stop  offset="0" style="stop-color:#D2BD73"/>
		<stop  offset="0.3315" style="stop-color:#886633"/>
		<stop  offset="0.4663" style="stop-color:#886633"/>
		<stop  offset="1" style="stop-color:#D2BD73"/>
	</linearGradient>
	<path class="st22" d="M636.1,568l21.1,19.9c0,0,2.1-4.7,20.8-4.7c18.7,0,153.2-0.4,153.2-0.4s2.2-7.4-37.5-10.2
		c-33.5-2.4-85.7-5.7-105.7-5.1C667.7,568,636.1,568,636.1,568z"/>
	
		<linearGradient id="SVGID_21_" gradientUnits="userSpaceOnUse" x1="-7612.2378" y1="352.9289" x2="-7479.1885" y2="485.9778" gradientTransform="matrix(-1 0 0 1 -6766.5 0)">
		<stop  offset="0" style="stop-color:#D2BD73"/>
		<stop  offset="0.3315" style="stop-color:#886633"/>
		<stop  offset="0.4663" style="stop-color:#886633"/>
		<stop  offset="1" style="stop-color:#D2BD73"/>
	</linearGradient>
	<path class="st23" d="M640.1,432.5l23.7-22.3c0,0-2.6,3.7,16,3.7c18.7,0,232.2-1.1,232.2-1.1s-10.8,9-44.4,12.1
		c-33.5,3.1-155.5,8.7-175.7,8.2C671.8,432.5,640.1,432.5,640.1,432.5z"/>
	<linearGradient id="SVGID_22_" gradientUnits="userSpaceOnUse" x1="350.9048" y1="607.9039" x2="368.3783" y2="607.9039">
		<stop  offset="0.4888" style="stop-color:#D3BD82"/>
		<stop  offset="1" style="stop-color:#886633"/>
	</linearGradient>
	<path class="st24" d="M346.6,595.2l19.2-23.2c0,0,1.7,5.4,1.7,12c0,6.6,0,23.6,0,28.7c0,5.1,3,11.9,3,11.9l-19.3,19.2
		c0,0-2.2-3.4-2.2-10.2c0-6.8,0-19.7,0-25.5C348.9,602.5,346.6,595.2,346.6,595.2z"/>
	
		<linearGradient id="SVGID_23_" gradientUnits="userSpaceOnUse" x1="-7412.7334" y1="607.6469" x2="-7395.3657" y2="607.6469" gradientTransform="matrix(-1 0 0 1 -6766.25 0)">
		<stop  offset="0.4888" style="stop-color:#D3BD82"/>
		<stop  offset="1" style="stop-color:#886633"/>
	</linearGradient>
	<path class="st25" d="M650.8,595.2l-20.6-23.7c0,0-1.6,5.7-1.6,12.4c0,6.6-0.4,24.4-0.4,29.5c0,5.1-1.2,11.2-1.2,11.2l19.2,19.2
		c0,0,2.2-3.4,2.2-10.2c0-6.8,0-19.7,0-25.5C648.5,602.5,650.8,595.2,650.8,595.2z"/>
	<linearGradient id="SVGID_24_" gradientUnits="userSpaceOnUse" x1="414.9447" y1="615.1771" x2="447.2414" y2="671.1166">
		<stop  offset="0" style="stop-color:#886633"/>
		<stop  offset="0.6461" style="stop-color:#D3BD82"/>
		<stop  offset="0.8876" style="stop-color:#F5E5A3"/>
	</linearGradient>
	<polygon class="st26" points="376,628 357.3,646.1 497.5,647.2 498.1,647.2 498.1,628.4 	"/>
	<linearGradient id="SVGID_25_" gradientUnits="userSpaceOnUse" x1="582.5659" y1="615.3992" x2="547.2708" y2="676.532">
		<stop  offset="0" style="stop-color:#886633"/>
		<stop  offset="0.4551" style="stop-color:#D3BD82"/>
		<stop  offset="0.8876" style="stop-color:#F5E5A3"/>
	</linearGradient>
	<polygon class="st27" points="619.1,628 498.7,628.4 498.1,628.4 498.1,647.2 642.2,645.5 	"/>
	<linearGradient id="SVGID_26_" gradientUnits="userSpaceOnUse" x1="391.9385" y1="390.3617" x2="466.5704" y2="315.7298">
		<stop  offset="0" style="stop-color:#D2BD73"/>
		<stop  offset="3.932600e-02" style="stop-color:#886633"/>
		<stop  offset="0.1067" style="stop-color:#CFAE6F"/>
		<stop  offset="1" style="stop-color:#D2BD73"/>
	</linearGradient>
	<path class="st28" d="M351.6,350l18.6,18.2c0,0,1.8-4,15-4c13,0,113.5,0,113.5,0v-16.4c0,0-135.5,0-139.4,0
		C355.3,347.9,351.6,350,351.6,350z"/>
	
		<linearGradient id="SVGID_27_" gradientUnits="userSpaceOnUse" x1="-7372.7271" y1="391.7773" x2="-7296.9048" y2="315.9549" gradientTransform="matrix(-1 0 0 1 -6766.25 0)">
		<stop  offset="0" style="stop-color:#D2BD73"/>
		<stop  offset="3.932600e-02" style="stop-color:#886633"/>
		<stop  offset="0.1067" style="stop-color:#CFAE6F"/>
		<stop  offset="1" style="stop-color:#D2BD73"/>
	</linearGradient>
	<path class="st29" d="M646.6,351.7L628,370c0,0-2.7-5.7-15.8-5.7c-13.1,0-113.5,0-113.5,0v-16.4c0,0,135.4,0,139.4,0
		C642.1,347.9,646.6,351.7,646.6,351.7z"/>
	<linearGradient id="SVGID_28_" gradientUnits="userSpaceOnUse" x1="342.5682" y1="402.6522" x2="370.2659" y2="376.8236">
		<stop  offset="0" style="stop-color:#F3E089"/>
		<stop  offset="0.1573" style="stop-color:#CFAE6F"/>
		<stop  offset="0.8371" style="stop-color:#CFAE6F"/>
		<stop  offset="1" style="stop-color:#F3E089"/>
	</linearGradient>
	<path class="st30" d="M366.5,373.7l-18.2-20.4c0,0-0.2,5.3-0.2,10.5c0,5.1,0,29.2,0,33.1c0,4-1.7,8.6-1.7,8.6l18.2,20.7
		c0,0,1.2-1.6,1.2-10.3C365.8,407.3,366.5,373.7,366.5,373.7z"/>
	
		<linearGradient id="SVGID_29_" gradientUnits="userSpaceOnUse" x1="-7422.7065" y1="402.2548" x2="-7393.7769" y2="375.2774" gradientTransform="matrix(-1 0 0 1 -6766.25 0)">
		<stop  offset="0" style="stop-color:#F3E089"/>
		<stop  offset="0.1573" style="stop-color:#CFAE6F"/>
		<stop  offset="0.8371" style="stop-color:#CFAE6F"/>
		<stop  offset="1" style="stop-color:#F3E089"/>
	</linearGradient>
	<path class="st31" d="M628.7,374l23.4-21.8c0,0-0.2,4.8-0.2,9.9c0,5.2,0.1,29.2,0.1,33c0,4,2.9,8.7,2.9,8.7l-22.2,22.4
		c0,0-4.1-2.3-4.1-10.8C628.7,406.7,628.7,374,628.7,374z"/>
	<linearGradient id="SVGID_30_" gradientUnits="userSpaceOnUse" x1="217.0004" y1="468.84" x2="303.7128" y2="382.1276">
		<stop  offset="0" style="stop-color:#886633"/>
		<stop  offset="1" style="stop-color:#BF9E64"/>
	</linearGradient>
	<path class="st32" d="M162.9,418.3L177,433c0,0,4-2.9,13.6-2.9c9.6,0,157.7,0,162.2,0c4.4,0,9.1-1.6,9.1-1.6l-18.1-18.7
		c0,0-4.6,4.6-10.8,4.6c-6.3,0-151.5,0-156.1,0C172.5,414.4,165.2,416,162.9,418.3z"/>
	<linearGradient id="SVGID_31_" gradientUnits="userSpaceOnUse" x1="842.0165" y1="484.8023" x2="878.8215" y2="521.6074">
		<stop  offset="5.618000e-03" style="stop-color:#886633"/>
		<stop  offset="1" style="stop-color:#D2BD73"/>
	</linearGradient>
	<path class="st33" d="M818.9,565.5c0,0,8.7-3.3,11.4,7.1c0,0,2.2,3.3,8.2-5.5c6.2-8.7,62.9-125.6,62.3-127.2
		c-0.5-1.6-11.9-3.9-11.9-3.9L818.9,565.5z"/>
	<linearGradient id="SVGID_32_" gradientUnits="userSpaceOnUse" x1="829.7466" y1="577.9055" x2="911.1165" y2="421.1737">
		<stop  offset="0" style="stop-color:#AC8E59"/>
		<stop  offset="0.764" style="stop-color:#886633"/>
		<stop  offset="0.9157" style="stop-color:#71502A"/>
	</linearGradient>
	<path class="st34" d="M890.5,437.2l27.8-19.1c0,0,3.2,3.6-1.4,12.5c-4.6,8.9-71.3,140.9-73.4,144.5c-2.2,3.6-9.2,6.9-9.2,6.9
		s-8.2-6.6,1-23c9.4-16.4,53.1-101.5,56.9-109.7C895.9,441,893.2,438.9,890.5,437.2z"/>
	<linearGradient id="SVGID_33_" gradientUnits="userSpaceOnUse" x1="761.3543" y1="613.5112" x2="530.2217" y2="338.0581">
		<stop  offset="0" style="stop-color:#F9F2D3"/>
		<stop  offset="0.4607" style="stop-color:#F5E5A3"/>
		<stop  offset="1" style="stop-color:#BE9968"/>
	</linearGradient>
	<path class="st35" d="M628.2,618.2c0-7.6,0-31.8,0-39.3c0-7.6,5-13.5,11-13.5c5,0,138.5,0,176.1,0c6.1,0,11.7-3.6,15-9.7
		c14.3-26.5,54-103.7,57-109.9c3.7-7.6,1.4-11.9-7.1-11.9c-50.2,0-224.8,0-233.4,0c-10.2,0-17.8-7.7-17.8-17c0-9.3,0-37.2,0-43.2
		c0-5.9-3.4-9.2-11-9.2c-3.9,0-61.8,0-119.3,0v263.9c56.7,0,113.3,0,116.7,0C622.2,628.4,628.2,625.9,628.2,618.2z"/>
	<linearGradient id="SVGID_34_" gradientUnits="userSpaceOnUse" x1="80.7265" y1="563.502" x2="160.6331" y2="483.5955">
		<stop  offset="0" style="stop-color:#886633"/>
		<stop  offset="1" style="stop-color:#E5CF92"/>
	</linearGradient>
	<path class="st36" d="M89.8,576.4l22.6-13.7c0,0-2.6-1.1,1.4-9.2c4.2-8.3,42.3-86,42.3-86l-8.5-1.8L89.8,576.4z"/>
	<linearGradient id="SVGID_35_" gradientUnits="userSpaceOnUse" x1="66.6177" y1="558.6031" x2="174.2097" y2="451.0112">
		<stop  offset="0" style="stop-color:#886633"/>
		<stop  offset="1" style="stop-color:#E4CC89"/>
	</linearGradient>
	<path class="st37" d="M160.4,421.8c0,0,9.3,5.5,3,19.2c-6.2,13.6-66.7,130.5-66.7,130.5l-13.4,9c0,0-1.3-3.9,4.4-14.1
		C93.4,556.2,160.4,421.8,160.4,421.8z"/>
	<path class="st3" d="M96.9,584.2c-0.9,0.6-9.2,1.7-10.8,0c-1.7-1.5-4.4-2.9-2.2-4.6c2.2-1.8,28.8-17.7,28.8-17.7s-3.2,1.8,24.1,1.8
		c27.3,0,212.8,0,218.4,0c5.9,0,11.2,4,12,6.5c0.7,2.5-0.8,3.6-2.5,3.3c-1.9-0.4-6.5-1.9-7.5-3.6c-1.1-1.9,1.4-3.3-14.4-3.3
		c-15.8,0-136.6,1.7-163.8,4.3C151.5,573.5,115.6,571.7,96.9,584.2z"/>
	<path class="st3" d="M904.1,413.3c0.8-0.6,9.1-1.7,10.7,0c1.7,1.5,4.3,2.7,2.2,4.6c-2.2,1.8-28.8,17.6-28.8,17.6s3.3-1.7-23.9-1.7
		c-27.5,0-212.9,0-218.5,0c-5.8,0-11.3-4-12-6.6c-0.7-2.5,0.7-3.6,2.5-3.3c1.9,0.5,6.5,1.9,7.6,3.7c1.1,1.8-1.4,3.2,14.4,3.2
		c15.7,0,136.6-1.8,163.9-4.4C849.4,424,885.4,425.8,904.1,413.3z"/>
	<path class="st3" d="M167.5,434c0-2.5,1.4-7.2,0.2-8.7c-1.1-1.4,2.3-3.2,4.6-1.6c2.2,1.4,7.1,2.5,7.5,3.5c0.6,1.2-0.3,4-3.4,5.2
		c-3.1,1.1-5.9,3.6-10.6,14.1c-5,10.4-32.3,63.6-32.3,63.6s3.9-8.5,2.3-8.7c-1.7-0.3-5.6,6.8-5.6,6.8L167.5,434z"/>
	<path class="st3" d="M356.4,429c-2.3,0.2-3-2.3-1-2.6c2-0.5,4.6-0.5,7-9.8c2.4-9.2,0.6-37,0.4-41.9c-0.4-5-2.7-11.1,0.6-13.8
		c3.4-2.6,5.8,3.1,14.3,3.1c8.6,0,28.2-0.7,28.2-0.7s-27.5,2-32.2,2.7c-4.6,0.6-8.6,4.3-8,10.9c0.7,6.7-1,41-2.4,44.7
		C362.1,425.3,359.7,428.7,356.4,429z"/>
	<path class="st3" d="M542.8,363.6c-3.6,0.3,70.4,0.9,74.9,0.9c4.6,0,10,1.5,11,6c1,4.7,0.2,19.9,0.2,19.9s2.4-19.6,5.7-23.1
		c3.3-3.7,2.4-9.1-2-8.1C628.3,360.3,594.1,361.3,542.8,363.6z"/>
	<path class="st3" d="M641.6,567.7c-2.4-0.3-5.1-0.7-5.7,1.4c-0.7,1.9,2.9,3.2-0.7,5.2c-3.7,2-6.4,3.3-6.4,1.6
		c0-1.6,1.8-10.1,8.7-10.1c7,0,179.2-0.3,182-0.3c2.6,0,5.9,0.3,7.3,2.9c1.3,2.7,3,9.4,4,11.4c1.1,2-0.8,2-3.7-2
		c-3-3.9-10.7-5.7-16.5-5.4C804.6,572.7,641.6,567.7,641.6,567.7z"/>
	<path class="st3" d="M831.6,573.3c0,0-1.8-3.7-2.7-5.9c-1-2.3-4-3.4-4-3.4s3.3-3.9,8-12.6c4.7-8.5,26.5-49.7,28.8-55.4
		c0,0-4.9,15.2,4.6,2.6c0,0-31.2,59.1-33.1,63.1C831.2,565.8,831.6,573.3,831.6,573.3z"/>
	<path class="st3" d="M369.6,619.8c0,0,0.4,4.9-2.4,6.8c-2.9,1.9-3.9,5.6-1.6,7.1c2.2,1.6,3.9,0.8,5.5-1.5c1.7-2.4,7.1-4.5,10.6-3.7
		C381.8,628.6,369.6,630.2,369.6,619.8z"/>
	<path class="st3" d="M540.7,628.4c0,0,67,3.5,71,3.7c4,0.2,6.8,0.3,6.8,0.3s-7.1-1.2-5-3.4L540.7,628.4z"/>
	<path class="st3" d="M620.2,627.8c0,0-2,3.2,1.2,4.8c3.2,1.6,6.4,3.2,8.4,0.8c1.9-2.3-1.6-8.7-1.3-13.1
		C628.5,620.2,630.1,627.1,620.2,627.8z"/>
</g>
</svg>
